<?xml version="1.0" encoding="UTF-8"?>
<svg version="1.1" xmlns="http://www.w3.org/2000/svg" width="970" height="177">
<path d="M0 0 C1.0219899 -0.00945648 2.0439798 -0.01891296 3.09693909 -0.02865601 C4.19279831 -0.02258331 5.28865753 -0.01651062 6.41772461 -0.01025391 C8.12900795 -0.01455917 8.12900795 -0.01455917 9.87486267 -0.01895142 C12.28978979 -0.02099167 14.70473345 -0.01546458 17.11962891 -0.00292969 C20.78253078 0.01302014 24.44431172 -0.00272688 28.10717773 -0.02197266 C30.46069576 -0.0199882 32.8142131 -0.01614034 35.16772461 -0.01025391 C36.24941422 -0.0163266 37.33110382 -0.02239929 38.4455719 -0.02865601 C51.47002506 0.0893124 64.31659621 3.09280133 74.13256836 12.07568359 C80.75509305 19.30147471 82.37834456 26.77937504 82.22412109 36.41552734 C81.8807287 43.83491083 80.68663131 50.16832919 75.59350586 55.76708984 C72.47203571 58.60894947 69.26838725 61.04763767 65.75756836 63.38818359 C67.49006836 63.91412109 67.49006836 63.91412109 69.25756836 64.45068359 C77.53953932 67.61688842 82.17690994 73.1552409 85.84741211 81.05615234 C89.5069626 90.43276883 88.91816034 101.70827659 85.01538086 110.89208984 C78.92514871 122.97798531 71.94109686 127.98693465 59.22241211 132.40771484 C51.79511162 134.50946504 44.58414776 134.56117925 36.90991211 134.59130859 C35.77985245 134.59700867 34.64979279 134.60270874 33.48548889 134.60858154 C31.10443042 134.61799719 28.72335911 134.6245518 26.34228516 134.62841797 C22.70379085 134.63816024 19.06585309 134.66923155 15.42749023 134.70068359 C13.1091342 134.70721093 10.79077414 134.71246246 8.47241211 134.71630859 C7.38790268 134.7286554 6.30339325 134.7410022 5.1860199 134.75372314 C-0.36661834 134.73735429 -4.48118387 134.59652158 -9.24243164 131.38818359 C-12.54712388 127.74162665 -13.36568771 124.54047474 -13.38287354 119.70195007 C-13.38858368 118.73886932 -13.39429382 117.77578857 -13.400177 116.78352356 C-13.40129486 115.72840073 -13.40241272 114.67327789 -13.40356445 113.58618164 C-13.40852936 112.4737207 -13.41349426 111.36125977 -13.41860962 110.21508789 C-13.43324128 106.52668647 -13.44003492 102.83832805 -13.44555664 99.14990234 C-13.45130723 96.59023538 -13.45706498 94.03056843 -13.46282959 91.47090149 C-13.47199819 86.78673972 -13.47829736 82.10259088 -13.48132634 77.4184224 C-13.48580524 70.53037436 -13.50334649 63.64252494 -13.53232694 56.75453728 C-13.55657467 50.78354629 -13.56427196 44.8126046 -13.56600189 38.84156227 C-13.56903039 36.30383028 -13.57706549 33.76609916 -13.59018707 31.22839928 C-13.60723341 27.67823602 -13.60537046 24.12855667 -13.59887695 20.57836914 C-13.60809174 19.529319 -13.61730652 18.48026886 -13.62680054 17.39942932 C-13.59605999 12.03673183 -13.48738887 7.89813868 -10.24243164 3.38818359 C-6.82904201 0.71119269 -4.29255398 0.01145706 0 0 Z M16.75756836 26.38818359 C16.75756836 35.29818359 16.75756836 44.20818359 16.75756836 53.38818359 C20.20194336 53.45005859 23.64631836 53.51193359 27.19506836 53.57568359 C28.26168701 53.60299561 29.32830566 53.63030762 30.42724609 53.65844727 C36.4040132 53.70987102 42.48191567 53.51077786 47.75756836 50.38818359 C49.02248783 48.36602223 49.02248783 48.36602223 49.75756836 46.38818359 C50.41756836 46.38818359 51.07756836 46.38818359 51.75756836 46.38818359 C53.11100249 39.26881821 53.11100249 39.26881821 51.25756836 32.45068359 C48.40844516 28.96050767 46.04621347 27.46561968 41.75756836 26.38818359 C37.43485635 26.03840856 33.15309933 26.10535635 28.82006836 26.20068359 C24.83944336 26.26255859 20.85881836 26.32443359 16.75756836 26.38818359 Z M16.75756836 77.38818359 C16.75756836 87.94818359 16.75756836 98.50818359 16.75756836 109.38818359 C21.06819336 109.45005859 25.37881836 109.51193359 29.82006836 109.57568359 C31.16593018 109.60299561 32.51179199 109.63030762 33.8984375 109.65844727 C42.04590867 109.71503115 47.32508277 109.37295367 53.63256836 103.88818359 C57.27572268 99.60211969 57.09592103 95.5219921 57.03881836 90.11865234 C56.64268207 86.27282917 55.36264515 84.20448282 52.75756836 81.38818359 C47.72990012 77.74312412 43.57120975 77.26170415 37.46069336 77.29052734 C36.37433594 77.2930249 35.28797852 77.29552246 34.16870117 77.2980957 C32.10894043 77.31175171 32.10894043 77.31175171 30.00756836 77.32568359 C25.63506836 77.34630859 21.26256836 77.36693359 16.75756836 77.38818359 Z " fill="#F4F4F4" transform="translate(509.242431640625,31.61181640625)"/>
<path d="M0 0 C10.99872359 0.010761 20.22064369 0.55029004 30.30737305 5.19018555 C31.6301336 5.56327186 32.95969381 5.9206497 34.30737305 6.19018555 C34.30737305 6.85018555 34.30737305 7.51018555 34.30737305 8.19018555 C35.62737305 8.19018555 36.94737305 8.19018555 38.30737305 8.19018555 C38.30737305 8.85018555 38.30737305 9.51018555 38.30737305 10.19018555 C39.29737305 10.19018555 40.28737305 10.19018555 41.30737305 10.19018555 C41.30737305 10.85018555 41.30737305 11.51018555 41.30737305 12.19018555 C41.96737305 12.19018555 42.62737305 12.19018555 43.30737305 12.19018555 C43.30737305 12.85018555 43.30737305 13.51018555 43.30737305 14.19018555 C44.29737305 14.19018555 45.28737305 14.19018555 46.30737305 14.19018555 C46.80237305 16.17018555 46.80237305 16.17018555 47.30737305 18.19018555 C47.96737305 18.19018555 48.62737305 18.19018555 49.30737305 18.19018555 C49.30737305 18.85018555 49.30737305 19.51018555 49.30737305 20.19018555 C49.96737305 20.19018555 50.62737305 20.19018555 51.30737305 20.19018555 C53.5764193 23.35388433 55.40919928 26.79396718 57.30737305 30.19018555 C57.69538086 30.88112305 58.08338867 31.57206055 58.4831543 32.28393555 C66.98394252 48.30086471 68.11143014 70.81592727 63.30737305 88.19018555 C60.68505031 95.88892929 57.2300864 103.66506403 52.30737305 110.19018555 C51.64737305 110.19018555 50.98737305 110.19018555 50.30737305 110.19018555 C49.93612305 111.05643555 49.93612305 111.05643555 49.55737305 111.94018555 C48.12437316 114.51958534 46.52312628 116.25140147 44.30737305 118.19018555 C43.64737305 118.19018555 42.98737305 118.19018555 42.30737305 118.19018555 C42.30737305 118.85018555 42.30737305 119.51018555 42.30737305 120.19018555 C41.64737305 120.19018555 40.98737305 120.19018555 40.30737305 120.19018555 C40.30737305 120.85018555 40.30737305 121.51018555 40.30737305 122.19018555 C39.31737305 122.19018555 38.32737305 122.19018555 37.30737305 122.19018555 C37.30737305 122.85018555 37.30737305 123.51018555 37.30737305 124.19018555 C35.98737305 124.19018555 34.66737305 124.19018555 33.30737305 124.19018555 C33.30737305 124.85018555 33.30737305 125.51018555 33.30737305 126.19018555 C31.98737305 126.19018555 30.66737305 126.19018555 29.30737305 126.19018555 C29.30737305 126.85018555 29.30737305 127.51018555 29.30737305 128.19018555 C16.85537648 132.13537258 5.31746152 132.68356697 -7.69262695 132.19018555 C-7.69262695 131.53018555 -7.69262695 130.87018555 -7.69262695 130.19018555 C-8.88887695 130.23143555 -10.08512695 130.27268555 -11.31762695 130.31518555 C-15.11592648 130.32870263 -18.14238313 129.61028308 -21.69262695 128.19018555 C-21.69262695 127.53018555 -21.69262695 126.87018555 -21.69262695 126.19018555 C-23.01262695 126.19018555 -24.33262695 126.19018555 -25.69262695 126.19018555 C-25.69262695 125.53018555 -25.69262695 124.87018555 -25.69262695 124.19018555 C-26.24950195 124.08706055 -26.80637695 123.98393555 -27.38012695 123.87768555 C-30.16953706 123.04840146 -32.30653335 121.84719499 -34.69262695 120.19018555 C-34.69262695 119.53018555 -34.69262695 118.87018555 -34.69262695 118.19018555 C-35.68262695 118.19018555 -36.67262695 118.19018555 -37.69262695 118.19018555 C-38.02262695 116.87018555 -38.35262695 115.55018555 -38.69262695 114.19018555 C-39.35262695 114.19018555 -40.01262695 114.19018555 -40.69262695 114.19018555 C-40.69262695 113.53018555 -40.69262695 112.87018555 -40.69262695 112.19018555 C-41.35262695 112.19018555 -42.01262695 112.19018555 -42.69262695 112.19018555 C-42.69262695 111.53018555 -42.69262695 110.87018555 -42.69262695 110.19018555 C-43.35262695 110.19018555 -44.01262695 110.19018555 -44.69262695 110.19018555 C-44.69262695 109.53018555 -44.69262695 108.87018555 -44.69262695 108.19018555 C-45.35262695 108.19018555 -46.01262695 108.19018555 -46.69262695 108.19018555 C-58.08963289 86.19652522 -60.77805719 64.36441758 -54.69262695 40.19018555 C-54.05059898 38.1821406 -53.39204602 36.17896845 -52.69262695 34.19018555 C-52.03262695 34.19018555 -51.37262695 34.19018555 -50.69262695 34.19018555 C-50.19762695 31.22018555 -50.19762695 31.22018555 -49.69262695 28.19018555 C-49.03262695 28.19018555 -48.37262695 28.19018555 -47.69262695 28.19018555 C-47.43352539 27.46444336 -47.17442383 26.73870117 -46.9074707 25.9909668 C-45.64788134 23.08702605 -44.18461489 20.87979571 -42.25512695 18.37768555 C-41.65829102 17.58749023 -41.06145508 16.79729492 -40.4465332 15.9831543 C-39.86774414 15.39147461 -39.28895508 14.79979492 -38.69262695 14.19018555 C-37.70262695 14.19018555 -36.71262695 14.19018555 -35.69262695 14.19018555 C-35.69262695 13.53018555 -35.69262695 12.87018555 -35.69262695 12.19018555 C-35.03262695 12.19018555 -34.37262695 12.19018555 -33.69262695 12.19018555 C-33.69262695 11.53018555 -33.69262695 10.87018555 -33.69262695 10.19018555 C-32.70262695 10.19018555 -31.71262695 10.19018555 -30.69262695 10.19018555 C-30.69262695 9.53018555 -30.69262695 8.87018555 -30.69262695 8.19018555 C-28.03740814 6.83292729 -25.36880225 5.50559375 -22.69262695 4.19018555 C-21.90887695 3.79831055 -21.12512695 3.40643555 -20.31762695 3.00268555 C-16.84201218 1.92690002 -13.42160539 1.698647 -9.80200195 1.4362793 C-6.3894753 1.03815119 -3.85047206 0.03326621 0 0 Z M-6.69262695 31.19018555 C-8.12656349 31.36766689 -9.56512335 31.50909702 -11.00512695 31.62768555 C-14.54906938 31.98207979 -17.4546457 32.62342043 -20.69262695 34.19018555 C-20.69262695 34.85018555 -20.69262695 35.51018555 -20.69262695 36.19018555 C-21.41450195 36.43768555 -22.13637695 36.68518555 -22.88012695 36.94018555 C-30.12665319 40.16086387 -33.91736586 45.79842466 -36.8137207 52.96362305 C-37.82069281 56.66032953 -38.07491559 60.13551717 -38.06762695 63.94018555 C-38.06891602 64.63885742 -38.07020508 65.3375293 -38.0715332 66.05737305 C-37.95051597 72.02022227 -36.5321969 76.91669851 -33.69262695 82.19018555 C-33.03262695 82.19018555 -32.37262695 82.19018555 -31.69262695 82.19018555 C-31.69262695 82.85018555 -31.69262695 83.51018555 -31.69262695 84.19018555 C-31.03262695 84.19018555 -30.37262695 84.19018555 -29.69262695 84.19018555 C-29.69262695 84.85018555 -29.69262695 85.51018555 -29.69262695 86.19018555 C-28.04262695 86.85018555 -26.39262695 87.51018555 -24.69262695 88.19018555 C-23.34111962 95.21802367 -24.28565679 101.21347397 -25.69262695 108.19018555 C-24.70262695 108.19018555 -23.71262695 108.19018555 -22.69262695 108.19018555 C-22.69262695 107.53018555 -22.69262695 106.87018555 -22.69262695 106.19018555 C-21.79543945 105.97362305 -21.79543945 105.97362305 -20.88012695 105.75268555 C-19.13112291 105.30294165 -17.40585672 104.76126214 -15.69262695 104.19018555 C-15.69262695 103.53018555 -15.69262695 102.87018555 -15.69262695 102.19018555 C-14.37262695 102.19018555 -13.05262695 102.19018555 -11.69262695 102.19018555 C-11.69262695 101.53018555 -11.69262695 100.87018555 -11.69262695 100.19018555 C-10.70262695 100.19018555 -9.71262695 100.19018555 -8.69262695 100.19018555 C-8.69262695 99.53018555 -8.69262695 98.87018555 -8.69262695 98.19018555 C-6.91758789 98.22499023 -6.91758789 98.22499023 -5.10668945 98.26049805 C7.17312085 98.43204371 17.14701504 97.74340717 28.30737305 92.19018555 C28.30737305 91.53018555 28.30737305 90.87018555 28.30737305 90.19018555 C29.14268555 90.09737305 29.14268555 90.09737305 29.99487305 90.00268555 C33.29805346 88.84210864 35.02632037 86.78805109 37.30737305 84.19018555 C37.30737305 83.53018555 37.30737305 82.87018555 37.30737305 82.19018555 C37.96737305 82.19018555 38.62737305 82.19018555 39.30737305 82.19018555 C44.15413908 73.308205 45.79494486 64.97400527 43.05737305 55.06518555 C41.69166138 50.87096203 40.09689978 47.60960541 37.30737305 44.19018555 C36.64737305 44.19018555 35.98737305 44.19018555 35.30737305 44.19018555 C35.10112305 43.61268555 34.89487305 43.03518555 34.68237305 42.44018555 C32.79112083 39.34540919 30.40701368 37.99830925 27.30737305 36.19018555 C26.64737305 36.19018555 25.98737305 36.19018555 25.30737305 36.19018555 C25.30737305 35.53018555 25.30737305 34.87018555 25.30737305 34.19018555 C23.65737305 34.19018555 22.00737305 34.19018555 20.30737305 34.19018555 C20.30737305 33.53018555 20.30737305 32.87018555 20.30737305 32.19018555 C12.85713593 30.22682894 0.50083486 27.59345464 -6.69262695 31.19018555 Z " fill="#E6302E" transform="translate(191.692626953125,35.809814453125)"/>
<path d="M0 0 C3.48042326 2.05984234 4.37969574 3.18237144 6.0625 6.8125 C6.35985007 9.52581513 6.50020275 12.0124588 6.49487305 14.72387695 C6.5050647 15.50489273 6.51525635 16.28590851 6.52575684 17.09059143 C6.55584432 19.66072808 6.56514613 22.23049175 6.57421875 24.80078125 C6.59106861 26.5872674 6.60921927 28.37374172 6.62861633 30.16020203 C6.67608917 34.85369163 6.70591609 39.54713325 6.73205566 44.24078369 C6.76187489 49.03366573 6.80840055 53.82638248 6.85351562 58.61914062 C6.93951783 68.01684058 7.00687685 77.41457457 7.0625 86.8125 C8.16240366 85.55659304 9.26214344 84.30054255 10.36181641 83.04443359 C10.97425201 82.34498627 11.58668762 81.64553894 12.21768188 80.92489624 C14.97013111 77.77322327 17.70270196 74.60448332 20.4375 71.4375 C25.03816205 66.11290632 29.69437087 60.85223192 34.453125 55.66796875 C36.12361767 53.89711578 36.12361767 53.89711578 37.0625 51.8125 C37.7225 51.8125 38.3825 51.8125 39.0625 51.8125 C39.26875 51.235 39.475 50.6575 39.6875 50.0625 C41.70211421 46.76585856 43.59807624 45.54471188 47.0625 43.8125 C52.10342524 42.99416798 55.89625471 43.23997959 60.5 45.5 C64.3741127 48.99615048 66.20820765 51.79942338 66.8125 57 C66.55881851 63.68395569 61.54592016 67.37436692 57.0625 71.8125 C55.16478345 73.85455742 53.30386474 75.92930996 51.4375 78 C47.94285013 81.83371915 44.38608974 85.57098122 40.59765625 89.1171875 C38.45006927 91.488823 36.7934048 94.1282891 35.0625 96.8125 C36.22265625 98.15441406 36.22265625 98.15441406 37.40625 99.5234375 C55.0625 119.9956039 55.0625 119.9956039 55.0625 122.8125 C55.7225 122.8125 56.3825 122.8125 57.0625 122.8125 C58.81894379 124.83893768 60.44964022 126.86411283 62.0625 129 C62.51367188 129.57814453 62.96484375 130.15628906 63.4296875 130.75195312 C66.7408765 135.08686772 69.63177573 139.1150316 69 144.8125 C68.3117119 149.10417876 66.52308912 151.13840841 63.0625 153.8125 C58.52264453 156.53641328 53.20165878 156.496074 48.0625 155.8125 C44.58364422 153.97819423 41.5669241 151.87346279 39.0625 148.8125 C39.0625 148.1525 39.0625 147.4925 39.0625 146.8125 C38.4025 146.8125 37.7425 146.8125 37.0625 146.8125 C35.35559526 144.61493449 33.75818564 142.41691885 32.1875 140.125 C31.31646832 138.87014575 30.44409217 137.61622357 29.5703125 136.36328125 C29.15040039 135.75822754 28.73048828 135.15317383 28.29785156 134.52978516 C27.17391603 132.96738149 25.9619644 131.46925369 24.7421875 129.98046875 C23.0625 127.8125 23.0625 127.8125 23.0625 125.8125 C22.4025 125.8125 21.7425 125.8125 21.0625 125.8125 C18.4604134 122.31594613 16.51252023 118.92089064 15.0625 114.8125 C14.4025 114.8125 13.7425 114.8125 13.0625 114.8125 C11.5546875 112.84375 11.5546875 112.84375 9.9375 110.3125 C9.39867187 109.4771875 8.85984375 108.641875 8.3046875 107.78125 C7.89476562 107.1315625 7.48484375 106.481875 7.0625 105.8125 C7.06419189 107.77255981 7.06419189 107.77255981 7.06591797 109.7722168 C7.06224272 114.62747458 7.01941482 119.48173933 6.96484375 124.33666992 C6.94669253 126.43653972 6.93911365 128.53652891 6.94238281 130.63647461 C6.94524238 133.65832738 6.90990201 136.6777085 6.8671875 139.69921875 C6.8808284 141.10417854 6.8808284 141.10417854 6.89474487 142.53752136 C6.7530082 148.91563514 6.7530082 148.91563514 4.74645996 151.52183533 C-0.30729697 155.84735792 -4.93782515 156.15828114 -11.328125 156.1015625 C-15.34563401 155.65650911 -18.68341186 154.19723617 -21.9375 151.8125 C-26.61712198 144.79306703 -25.09076362 134.10741434 -25.09863281 125.9465332 C-25.10359772 124.69810638 -25.10856262 123.44967957 -25.11367798 122.16342163 C-25.12569951 118.76900833 -25.13322001 115.37465587 -25.13768864 111.98022866 C-25.14063636 109.85508928 -25.14474392 107.72995508 -25.14919281 105.60481834 C-25.16282553 98.94185138 -25.17251633 92.27889648 -25.1763947 85.61591655 C-25.18088435 77.94803088 -25.19849177 70.28032267 -25.2273953 62.61249095 C-25.24903126 56.66487941 -25.25909977 50.71731779 -25.26043582 44.76966733 C-25.26148121 41.22545232 -25.26733377 37.68140511 -25.28525543 34.13723183 C-25.30484235 30.18819076 -25.30043952 26.23937164 -25.29394531 22.2902832 C-25.3031601 21.12491531 -25.31237488 19.95954742 -25.3218689 18.75886536 C-25.29055661 12.68326167 -24.99821294 8.12730323 -21.9375 2.8125 C-15.63148145 -1.91701392 -7.38700151 -2.78784492 0 0 Z " fill="#F4F4F4" transform="translate(881.9375,11.1875)"/>
<path d="M0 0 C1.66015625 1.3203125 1.66015625 1.3203125 3.91015625 3.5703125 C3.91015625 4.2303125 3.91015625 4.8903125 3.91015625 5.5703125 C5.39515625 6.0653125 5.39515625 6.0653125 6.91015625 6.5703125 C17.71683631 18.09402347 20.27096898 34.39640159 20.12109375 49.59375 C19.30886202 64.90582215 13.66233648 78.55076011 2.91015625 89.5703125 C-10.67707473 101.00641483 -26.63624541 104.79482385 -44.08984375 103.5703125 C-56.76570747 101.97865993 -69.520667 96.27197957 -78.08984375 86.5703125 C-90.11120313 70.29448026 -93.73471109 52.4161221 -90.76904297 32.40576172 C-89.95442894 28.61379773 -88.6423037 25.11441515 -87.08984375 21.5703125 C-86.73921875 20.69632813 -86.38859375 19.82234375 -86.02734375 18.921875 C-80.2748929 5.93891301 -69.59581048 -2.44559287 -56.71484375 -7.8046875 C-38.35108297 -14.86767241 -15.92494226 -10.89444648 0 0 Z M-55.6171875 25.109375 C-61.73092859 35.32597152 -62.34707001 46.37447983 -59.96484375 57.7578125 C-58.02879057 64.76577966 -54.78045006 69.34763772 -49.21484375 73.9453125 C-42.54804289 77.41204895 -36.45057373 78.34615295 -29.08984375 76.5703125 C-20.79432486 73.5564729 -16.03178034 68.31340222 -12.08984375 60.5703125 C-10.70120304 56.06291202 -10.86725529 51.55990659 -10.83984375 46.8828125 C-10.81921875 46.02236328 -10.79859375 45.16191406 -10.77734375 44.27539062 C-10.72296754 35.25573702 -12.72018106 27.93257778 -19.0078125 21.30078125 C-24.3311793 16.8762944 -30.90209533 14.80528079 -37.80078125 15.1953125 C-45.16248957 16.40132615 -50.9655863 19.19315409 -55.6171875 25.109375 Z " fill="#F0F0EF" transform="translate(821.08984375,64.4296875)"/>
<path d="M0 0 C10.68377149 9.72241344 15.89173008 24.10746951 16.640625 38.29296875 C17.16748697 55.02753371 14.18530451 70.50219318 2.86328125 83.40625 C1.38263166 84.94592881 -0.11524141 86.46940324 -1.63671875 87.96875 C-2.39082031 88.73832031 -2.39082031 88.73832031 -3.16015625 89.5234375 C-13.84860177 99.47048796 -30.33589706 101.8012615 -44.35546875 101.3125 C-55.78053665 100.58939444 -65.49548716 96.8473005 -74.63671875 89.96875 C-75.90128906 89.02708984 -75.90128906 89.02708984 -77.19140625 88.06640625 C-87.30779397 79.38829091 -93.74977071 65.69870951 -94.84179688 52.48779297 C-94.93972061 49.89431285 -94.96594226 47.3139991 -94.94921875 44.71875 C-94.9435791 43.79779541 -94.93793945 42.87684082 -94.93212891 41.92797852 C-94.68503207 27.98168652 -91.16060082 14.58932152 -81.63671875 3.96875 C-80.97671875 3.96875 -80.31671875 3.96875 -79.63671875 3.96875 C-79.30671875 2.97875 -78.97671875 1.98875 -78.63671875 0.96875 C-72.38909403 -4.5531978 -65.60041321 -8.60251493 -57.63671875 -11.03125 C-56.90582031 -11.25554688 -56.17492187 -11.47984375 -55.421875 -11.7109375 C-35.77199874 -16.61500918 -15.89169777 -12.2424931 0 0 Z M-57.69921875 21.09375 C-64.70726316 31.49278364 -65.80803953 42.1951056 -63.44921875 54.46875 C-61.46994227 62.44826554 -58.386897 67.16573855 -51.63671875 71.96875 C-45.18762777 75.44347574 -38.29616429 76.22927633 -31.2109375 74.3125 C-23.72434181 71.39335681 -19.60487587 66.56119567 -16.32421875 59.34375 C-12.19903474 47.86949869 -13.00046992 35.6957472 -17.671875 24.484375 C-20.92133362 18.62433438 -25.85966947 15.16635099 -32.19921875 13.15625 C-33.00359375 13.094375 -33.80796875 13.0325 -34.63671875 12.96875 C-35.70921875 12.88625 -36.78171875 12.80375 -37.88671875 12.71875 C-45.26804271 13.21083826 -52.47849115 15.71481854 -57.69921875 21.09375 Z " fill="#F0F0EF" transform="translate(702.63671875,67.03125)"/>
<path d="M0 0 C1.03125 0.01804688 2.0625 0.03609375 3.125 0.0546875 C5.66761064 0.10177288 8.20833162 0.1675195 10.75 0.25 C10.75 0.91 10.75 1.57 10.75 2.25 C11.74 2.25 12.73 2.25 13.75 2.25 C14.9609375 3.73120117 14.9609375 3.73120117 16.125 5.79296875 C16.55296875 6.53740234 16.9809375 7.28183594 17.421875 8.04882812 C17.86015625 8.83708984 18.2984375 9.62535156 18.75 10.4375 C19.18828125 11.20642578 19.6265625 11.97535156 20.078125 12.76757812 C20.92833159 14.25928096 21.77357153 15.75382798 22.61328125 17.25146484 C23.55922108 18.91457985 24.55489739 20.5492848 25.5625 22.17578125 C26.75 24.25 26.75 24.25 26.75 26.25 C27.41 26.25 28.07 26.25 28.75 26.25 C29.245 29.22 29.245 29.22 29.75 32.25 C30.41 32.25 31.07 32.25 31.75 32.25 C32.41 34.23 33.07 36.21 33.75 38.25 C34.74 38.25 35.73 38.25 36.75 38.25 C37.41 36.93 38.07 35.61 38.75 34.25 C39.41 34.25 40.07 34.25 40.75 34.25 C40.95625 33.46625 41.1625 32.6825 41.375 31.875 C43.2231339 27.00264698 45.6803756 22.47073355 48.75 18.25 C49.41 18.25 50.07 18.25 50.75 18.25 C51.03875 17.3425 51.3275 16.435 51.625 15.5 C52.51531776 12.92797092 53.46494413 10.63653234 54.75 8.25 C55.41 8.25 56.07 8.25 56.75 8.25 C57.018125 7.30125 57.28625 6.3525 57.5625 5.375 C58.75 2.25 58.75 2.25 61.75 0.25 C65.38054181 -0.20926914 69.03098342 -0.12031516 72.6875 -0.125 C73.68974609 -0.14949219 74.69199219 -0.17398438 75.72460938 -0.19921875 C82.96921523 -0.22821651 82.96921523 -0.22821651 86.44140625 1.8984375 C88.1611103 4.98877134 88.25190123 6.75445782 87.75 10.25 C86.46484375 12.85546875 86.46484375 12.85546875 84.6875 15.4375 C83.73617187 16.84515625 83.73617187 16.84515625 82.765625 18.28125 C82.10046875 19.2609375 81.4353125 20.240625 80.75 21.25 C78.90099902 24.23798558 77.06291183 27.23230673 75.23046875 30.23046875 C74.49763672 31.23013672 74.49763672 31.23013672 73.75 32.25 C73.09 32.25 72.43 32.25 71.75 32.25 C71.75 33.57 71.75 34.89 71.75 36.25 C71.09 36.25 70.43 36.25 69.75 36.25 C69.523125 37.075 69.29625 37.9 69.0625 38.75 C67.74812125 42.25501 66.1504656 45.03234858 64.1171875 48.1484375 C62.27896758 50.97404413 60.57689277 53.87871583 58.86328125 56.78125 C58.49589844 57.2659375 58.12851562 57.750625 57.75 58.25 C57.09 58.25 56.43 58.25 55.75 58.25 C55.21740984 63.67576222 56.94764902 67.03138628 59.75 71.5 C63.75 78.04054054 63.75 78.04054054 63.75 80.25 C64.41 80.25 65.07 80.25 65.75 80.25 C66.41 82.23 67.07 84.21 67.75 86.25 C68.41 86.25 69.07 86.25 69.75 86.25 C70.71189997 87.97718516 71.66936508 89.70684058 72.625 91.4375 C73.15867187 92.40042969 73.69234375 93.36335938 74.2421875 94.35546875 C75.5923678 96.94739518 76.72098329 99.51761098 77.75 102.25 C78.41 102.25 79.07 102.25 79.75 102.25 C80.41 104.23 81.07 106.21 81.75 108.25 C82.41 108.25 83.07 108.25 83.75 108.25 C84.42154933 109.53913487 85.08708859 110.83140204 85.75 112.125 C86.12125 112.84429687 86.4925 113.56359375 86.875 114.3046875 C87.75 116.25 87.75 116.25 87.75 118.25 C88.41 118.25 89.07 118.25 89.75 118.25 C90.04296875 124.3046875 90.04296875 124.3046875 89.75 126.25 C86.35102327 128.51598448 85.18680827 128.48742654 81.20703125 128.4453125 C79.59731445 128.43564453 79.59731445 128.43564453 77.95507812 128.42578125 C76.27575195 128.40064453 76.27575195 128.40064453 74.5625 128.375 C73.43134766 128.36597656 72.30019531 128.35695312 71.13476562 128.34765625 C68.33963172 128.32406862 65.54492155 128.291153 62.75 128.25 C62.75 127.59 62.75 126.93 62.75 126.25 C62.151875 126.20875 61.55375 126.1675 60.9375 126.125 C57.65249924 124.8109997 57.17680407 122.36302707 55.75 119.25 C55.09 118.92 54.43 118.59 53.75 118.25 C53.01295621 116.56562591 52.28127154 114.87850342 51.58886719 113.17529297 C50.29700276 110.21032124 48.59495566 107.54635948 46.875 104.8125 C46.17632812 103.69359375 45.47765625 102.5746875 44.7578125 101.421875 C43.54917585 99.51251126 42.33680433 97.60549384 41.1171875 95.703125 C37.75 90.43107143 37.75 90.43107143 37.75 88.25 C36.76 88.58 35.77 88.91 34.75 89.25 C34.255 90.735 34.255 90.735 33.75 92.25 C33.09 92.25 32.43 92.25 31.75 92.25 C30.67474806 94.90228812 29.65543849 97.53368454 28.75 100.25 C28.09 100.25 27.43 100.25 26.75 100.25 C26.523125 101.075 26.29625 101.9 26.0625 102.75 C24.76198363 106.21804366 23.18951943 108.93699088 21.1875 112.0234375 C19.57126472 114.52684541 18.03198836 117.06923096 16.5 119.625 C15.99984375 120.45773438 15.4996875 121.29046875 14.984375 122.1484375 C14.19587138 123.49088986 13.44626378 124.85747243 12.75 126.25 C9.62047116 128.25480612 7.1077354 128.50665039 3.43359375 128.515625 C2.42232422 128.51820313 1.41105469 128.52078125 0.36914062 128.5234375 C-0.68080078 128.51570312 -1.73074219 128.50796875 -2.8125 128.5 C-3.86630859 128.50773438 -4.92011719 128.51546875 -6.00585938 128.5234375 C-7.01583984 128.52085937 -8.02582031 128.51828125 -9.06640625 128.515625 C-9.98881104 128.51336914 -10.91121582 128.51111328 -11.86157227 128.50878906 C-14.25 128.25 -14.25 128.25 -17.25 126.25 C-17.97367066 121.20601551 -16.47670487 118.14673353 -14 113.8125 C-13.36449219 112.68585938 -12.72898437 111.55921875 -12.07421875 110.3984375 C-11.17123047 108.83996094 -11.17123047 108.83996094 -10.25 107.25 C-9.80269531 106.45851563 -9.35539062 105.66703125 -8.89453125 104.8515625 C-8.02392163 103.31149494 -7.13919358 101.77941296 -6.25 100.25 C-5.59 100.25 -4.93 100.25 -4.25 100.25 C-3.17474806 97.59771188 -2.15543849 94.96631546 -1.25 92.25 C-0.59 92.25 0.07 92.25 0.75 92.25 C1.059375 91.30125 1.36875 90.3525 1.6875 89.375 C2.75 86.25 2.75 86.25 3.75 84.25 C4.41 84.25 5.07 84.25 5.75 84.25 C6.01941406 83.528125 6.28882813 82.80625 6.56640625 82.0625 C7.73979729 79.27424406 9.105965 76.82552773 10.6875 74.25 C11.19152344 73.425 11.69554687 72.6 12.21484375 71.75 C13.27661524 70.02090648 14.36301909 68.30678654 15.46875 66.60546875 C17.03865151 64.29243861 17.03865151 64.29243861 16.3125 61.5625 C14.47274679 57.6622232 12.29814572 54.06286167 9.9921875 50.421875 C8.75 48.25 8.75 48.25 8.75 46.25 C8.09 46.25 7.43 46.25 6.75 46.25 C6.481875 45.75113281 6.21375 45.25226563 5.9375 44.73828125 C2.65946146 38.73213828 -0.90910595 32.94046676 -4.578125 27.16796875 C-5.96854714 24.74122731 -6.80149379 22.97401564 -7.25 20.25 C-7.91 20.25 -8.57 20.25 -9.25 20.25 C-11.29169485 17.34451118 -12.25 15.84857954 -12.25 12.25 C-12.91 12.25 -13.57 12.25 -14.25 12.25 C-15.69404332 5.02978339 -15.69404332 5.02978339 -13.96875 2 C-9.58432792 -0.82215674 -5.08749127 -0.16786139 0 0 Z " fill="#EA312E" transform="translate(279.25,37.75)"/>
<path d="M0 0 C4.08531867 -0.6714203 8.24112443 -0.46281884 12.375 -0.4375 C13.52484375 -0.45748047 14.6746875 -0.47746094 15.859375 -0.49804688 C16.96539063 -0.49740234 18.07140625 -0.49675781 19.2109375 -0.49609375 C20.73146729 -0.49887329 20.73146729 -0.49887329 22.28271484 -0.50170898 C25.73867679 0.13638641 26.85631088 1.26024019 29 4 C29.97314453 5.99536133 29.97314453 5.99536133 30.6328125 8.08203125 C30.88160156 8.84966797 31.13039062 9.61730469 31.38671875 10.40820312 C31.63035156 11.20162109 31.87398437 11.99503906 32.125 12.8125 C32.37636719 13.59431641 32.62773438 14.37613281 32.88671875 15.18164062 C33.98096559 18.61047169 35.0135356 22.04790751 35.9921875 25.51171875 C36.97642795 28.91841148 38.07282441 32.26578516 39.20556641 35.625 C40.89390777 40.67238314 42.47683963 45.75422793 44.08251953 50.82836914 C45.76629311 56.14160048 47.46817585 61.44805336 49.19921875 66.74609375 C49.56184814 67.86177734 49.92447754 68.97746094 50.2980957 70.12695312 C51.00169294 72.28990449 51.70967662 74.45143522 52.42260742 76.61132812 C54.09045658 81.75549736 55.46956042 86.61224943 56 92 C56.99 92 57.98 92 59 92 C59.11988281 90.83082031 59.23976562 89.66164063 59.36328125 88.45703125 C59.87846263 84.36165394 60.90476833 80.61871971 62.1875 76.6875 C62.64592878 75.26565577 63.10425816 73.84377949 63.5625 72.421875 C63.80097656 71.69033203 64.03945312 70.95878906 64.28515625 70.20507812 C65.20547199 67.36618066 66.09643415 64.5185046 66.98779297 61.67041016 C70.16930013 51.51756141 73.44912806 41.39630801 76.72195435 31.27264404 C79.8703104 21.53210956 82.98726881 11.78344813 86 2 C86.99 2 87.98 2 89 2 C89 1.34 89 0.68 89 0 C96.92 0 104.84 0 113 0 C113 0.66 113 1.32 113 2 C113.66 2 114.32 2 115 2 C117.07182971 11.7447439 112.83159598 20.76057895 109.34692383 29.75927734 C106.53578205 37.06142155 104.25108382 44.50966799 102 52 C101.34 52 100.68 52 100 52 C99.9175 53.11375 99.835 54.2275 99.75 55.375 C99.2178971 59.57351059 97.88800124 63.02309528 96.23828125 66.8984375 C94.36132787 71.59970243 92.8337733 76.41101902 91.2824707 81.22802734 C90.01488487 85.11804153 88.65162302 88.93011421 87.10546875 92.71875 C84.59489387 98.89421452 82.46354353 105.19216229 80.3125 111.5 C79.5181438 113.82333302 78.72263171 116.14627127 77.92578125 118.46875 C77.57942627 119.48388672 77.23307129 120.49902344 76.8762207 121.54492188 C76 124 76 124 75 126 C74.01 126 73.02 126 72 126 C72 126.66 72 127.32 72 128 C67.81915709 128.09922585 63.63894629 128.17163374 59.45727539 128.21972656 C58.03625543 128.23978421 56.61531741 128.26703778 55.19458008 128.30175781 C53.14644105 128.35054011 51.09939725 128.37302539 49.05078125 128.390625 C47.82012939 128.41157227 46.58947754 128.43251953 45.3215332 128.45410156 C41.37514508 127.91457331 39.78075675 126.79882802 37 124 C35.13235476 119.90896757 34.78729183 116.46687154 35 112 C34.34 112 33.68 112 33 112 C32.15343424 109.46030273 31.30689105 106.92059796 30.46044922 104.38085938 C29.73069577 102.19192731 29.00054604 100.00312732 28.27001953 97.81445312 C26.61891402 92.86620357 24.96965824 87.91753089 23.34375 82.9609375 C23.09318848 82.20022949 22.84262695 81.43952148 22.58447266 80.65576172 C22.13877533 79.30149215 21.69539206 77.94645655 21.25537109 76.59033203 C19.92781527 72.56703547 18.47848021 68.60066774 16.97288513 64.64038086 C13.31431472 55.01267908 10.0273001 45.28355594 6.8125 35.5 C6.02897356 33.12153286 5.24447885 30.74339539 4.45817566 28.36584473 C3.97557393 26.90604974 3.49457191 25.44572439 3.01557922 23.98474121 C1.87522361 20.52992249 0.67014691 17.12315181 -0.6496582 13.73242188 C-2.06112691 9.83104173 -2.40306187 7.11123112 -2 3 C-1.34 2.01 -0.68 1.02 0 0 Z " fill="#E4302F" transform="translate(14,38)"/>
<path d="M0 0 C1.86353201 1.86353201 1.40484072 4.49837601 1.62109375 6.9921875 C1.92253842 9.30715407 1.92253842 9.30715407 4 12 C7.67141227 12.96980701 10.14867056 13.24593962 13.8125 12.1875 C17.1007332 9.30373569 17.1007332 9.30373569 18 0 C27.57 0 37.14 0 47 0 C47.66 3.3 48.32 6.6 49 10 C50.68880416 13.22738328 50.68880416 13.22738328 53.75 13.8125 C57.38104122 14.02198315 59.68758728 13.46362423 63 12 C64.44681324 9.10637351 64.43242376 6.1916991 64.71875 2.99609375 C65 1 65 1 66 0 C74.97718911 -0.4415011 74.97718911 -0.4415011 78 2 C79.95448594 5.91806674 80.25270505 9.15091063 80.25878906 13.49926758 C80.26509338 14.79443802 80.27139771 16.08960846 80.27789307 17.42402649 C80.27431192 18.83086279 80.27020962 20.23769786 80.265625 21.64453125 C80.26697369 23.097957 80.26891592 24.55138231 80.27142334 26.00480652 C80.27436783 29.04857688 80.27010062 32.09222966 80.26074219 35.13598633 C80.2493785 39.0194253 80.25589168 42.90258683 80.26788712 46.78601551 C80.27515009 49.78791859 80.272797 52.78975707 80.26763153 55.79166222 C80.26630569 57.22246013 80.26790504 58.65326409 80.27259064 60.08405495 C80.31805337 77.87566719 80.31805337 77.87566719 76.5625 82.9375 C72.80658895 85.49151952 68.81387424 85.14799101 64.47094727 85.14526367 C63.70640228 85.14862228 62.9418573 85.1519809 62.15414429 85.15544128 C59.62488178 85.16494616 57.09568551 85.16689411 54.56640625 85.16796875 C52.80907667 85.17118145 51.05174735 85.17454553 49.29441833 85.17805481 C45.60992818 85.18404477 41.92546148 85.18589482 38.2409668 85.18530273 C33.51859987 85.18520107 28.79638317 85.19885796 24.07405186 85.21607494 C20.44438485 85.22719004 16.81475423 85.2292221 13.18507195 85.22869301 C11.44394347 85.22987368 9.70281408 85.23430036 7.96170235 85.24202538 C5.5271767 85.25181618 3.09297811 85.24895098 0.65844727 85.24291992 C-0.42097389 85.25134918 -0.42097389 85.25134918 -1.52220154 85.25994873 C-5.18145561 85.23689853 -7.8888708 85.01393529 -11 83 C-11 82.34 -11 81.68 -11 81 C-11.66 81 -12.32 81 -13 81 C-15.23655058 77.40647444 -15.26981724 74.39783032 -15.30639648 70.21533203 C-15.31472 69.54163574 -15.32304352 68.86793945 -15.33161926 68.17382812 C-15.35566943 65.95176373 -15.36448498 63.72999315 -15.37109375 61.5078125 C-15.38006376 59.95848505 -15.38918567 58.40915847 -15.39845276 56.85983276 C-15.41493165 53.61340228 -15.42264087 50.36707478 -15.42553711 47.12060547 C-15.43092049 42.96870089 -15.468602 38.81776946 -15.51428127 34.6661396 C-15.5440818 31.46614073 -15.5512613 28.2663754 -15.55226326 25.06624985 C-15.55645952 23.53606585 -15.56887016 22.00588077 -15.58978081 20.47583389 C-15.61676114 18.33098837 -15.61185319 16.18838786 -15.59936523 14.04345703 C-15.60443588 12.82530304 -15.60950653 11.60714905 -15.61473083 10.3520813 C-14.78753603 5.84144986 -13.24289671 4.20893156 -10 1 C-6.50615721 -0.16461426 -3.66344611 -0.13568319 0 0 Z M-5 29 C-5.09795311 30.37609882 -5.12798088 31.75713882 -5.12939453 33.13671875 C-5.13254669 34.01432861 -5.13569885 34.89193848 -5.13894653 35.79614258 C-5.1369223 36.75029053 -5.13489807 37.70443848 -5.1328125 38.6875 C-5.13376923 39.66033936 -5.13472595 40.63317871 -5.13571167 41.63549805 C-5.13639358 43.696778 -5.13453853 45.75806008 -5.13037109 47.81933594 C-5.125023 50.98637688 -5.13031572 54.153276 -5.13671875 57.3203125 C-5.13605797 59.31770865 -5.13477681 61.31510471 -5.1328125 63.3125 C-5.13483673 64.26664795 -5.13686096 65.2207959 -5.13894653 66.20385742 C-5.13579437 67.08146729 -5.13264221 67.95907715 -5.12939453 68.86328125 C-5.12859894 69.63969971 -5.12780334 70.41611816 -5.12698364 71.21606445 C-5.19403542 73.02433662 -5.19403542 73.02433662 -4 74 C-1.79369501 74.16071914 0.41769468 74.25194151 2.62890625 74.31640625 C3.318172 74.33727798 4.00743774 74.35814972 4.71759033 74.37965393 C6.99910542 74.44641473 9.28073272 74.50504383 11.5625 74.5625 C12.7274147 74.59376984 12.7274147 74.59376984 13.91586304 74.62567139 C25.54748024 74.93528256 37.17684544 75.10434913 48.8125 75.125 C49.49031525 75.1275882 50.16813049 75.13017639 50.8664856 75.13284302 C52.79249194 75.13868857 54.71851855 75.1359248 56.64453125 75.1328125 C57.73096924 75.13168457 58.81740723 75.13055664 59.93676758 75.12939453 C63.03206099 74.99864571 65.95840281 74.57459682 69 74 C70.56068626 62.48993882 69.99073391 51.10289669 69.4921875 39.53515625 C69.42149048 37.86845886 69.42149048 37.86845886 69.34936523 36.16809082 C69.23375331 33.44535681 69.1172756 30.72266277 69 28 C59.49925675 27.97687516 49.99852312 27.9590842 40.49775791 27.94818783 C36.08662996 27.94295931 31.6755212 27.93586223 27.2644043 27.92456055 C23.01098885 27.91373056 18.75759191 27.90772293 14.50416374 27.90512276 C12.87778367 27.90326871 11.25140466 27.89964848 9.62503242 27.89426994 C7.35489807 27.88705802 5.08484115 27.88600912 2.81469727 27.88647461 C1.52008072 27.884254 0.22546417 27.88203339 -1.10838318 27.87974548 C-3.89442383 27.66871888 -3.89442383 27.66871888 -5 29 Z " fill="#DCDCDC" transform="translate(394,77)"/>
<path d="M0 0 C1.24136719 0.00580078 1.24136719 0.00580078 2.5078125 0.01171875 C3.35859375 0.03621094 4.209375 0.06070312 5.0859375 0.0859375 C5.94445312 0.08722656 6.80296875 0.08851562 7.6875 0.08984375 C14.03825818 0.17915129 14.03825818 0.17915129 17.4609375 2.4609375 C17.82170105 4.67556763 17.82170105 4.67556763 17.80151367 7.46142578 C17.80128708 8.50235382 17.80106049 9.54328186 17.80082703 10.61575317 C17.78534317 11.74286713 17.76985931 12.86998108 17.75390625 14.03125 C17.74966141 15.18261444 17.74541656 16.33397888 17.74104309 17.52023315 C17.72420802 21.20903605 17.68654624 24.89729886 17.6484375 28.5859375 C17.63339694 31.08202338 17.61970745 33.57811779 17.60742188 36.07421875 C17.5742887 42.20331025 17.52404139 48.3320853 17.4609375 54.4609375 C15.61157227 55.06201172 15.61157227 55.06201172 13.4609375 55.4609375 C11.05078125 53.84375 11.05078125 53.84375 8.3984375 51.5859375 C3.38418023 47.70545576 -0.13254004 46.5584526 -6.421875 46.49609375 C-8.5390625 46.4609375 -8.5390625 46.4609375 -9.5390625 45.4609375 C-9.83177181 39.67307398 -9.85313585 33.88269255 -9.88916016 28.08813477 C-9.90571725 26.13358654 -9.93300407 24.1790988 -9.97119141 22.22485352 C-10.0259159 19.41130059 -10.04782773 16.59916947 -10.0625 13.78515625 C-10.08516937 12.91211349 -10.10783875 12.03907074 -10.13119507 11.13957214 C-10.11016784 5.1094756 -10.11016784 5.1094756 -7.29003906 1.90698242 C-4.54267763 0.46283779 -3.060926 -0.0335066 0 0 Z " fill="#EEEEEE" transform="translate(455.5390625,14.5390625)"/>
<path d="M0 0 C1.0219899 -0.00945648 2.0439798 -0.01891296 3.09693909 -0.02865601 C4.19279831 -0.02258331 5.28865753 -0.01651062 6.41772461 -0.01025391 C8.12900795 -0.01455917 8.12900795 -0.01455917 9.87486267 -0.01895142 C12.28978979 -0.02099167 14.70473345 -0.01546458 17.11962891 -0.00292969 C20.78253078 0.01302014 24.44431172 -0.00272688 28.10717773 -0.02197266 C30.46069576 -0.0199882 32.8142131 -0.01614034 35.16772461 -0.01025391 C36.24941422 -0.0163266 37.33110382 -0.02239929 38.4455719 -0.02865601 C45.91922814 0.0390363 52.59298085 1.27975858 59.75756836 3.38818359 C59.75756836 3.71818359 59.75756836 4.04818359 59.75756836 4.38818359 C58.71536133 4.22970947 57.6731543 4.07123535 56.59936523 3.90795898 C50.51462024 3.15153167 44.41278995 3.15516317 38.28881836 3.07177734 C37.01276733 3.05099625 35.73671631 3.03021515 34.42199707 3.00880432 C31.05524801 2.95474687 27.68848641 2.9044237 24.32165527 2.85595703 C20.87576365 2.80541702 17.42995241 2.74990189 13.98413086 2.69482422 C7.2420077 2.58805893 0.49982377 2.48622159 -6.24243164 2.38818359 C-6.53118164 3.02755859 -6.81993164 3.66693359 -7.11743164 4.32568359 C-8.24243164 6.38818359 -8.24243164 6.38818359 -10.24243164 7.38818359 C-10.33593289 22.80016734 -10.40643918 38.21212984 -10.44968033 53.62433052 C-10.47029295 60.78073745 -10.49838839 67.93696801 -10.54418945 75.09326172 C-10.5840974 81.33175268 -10.60987391 87.57011589 -10.61878562 93.80873096 C-10.62399382 97.1111655 -10.63831423 100.41315001 -10.66535187 103.71548843 C-10.69435952 107.40494772 -10.69838856 111.09364827 -10.6965332 114.78320312 C-10.71810486 116.41995247 -10.71810486 116.41995247 -10.7401123 118.08976746 C-10.70698733 124.17138568 -10.27787521 127.73242628 -6.24243164 132.38818359 C-9.07067946 131.41292573 -10.16507498 130.50281968 -11.85488892 127.99865723 C-13.76926347 123.01733396 -13.66139201 118.53836854 -13.63061523 113.24560547 C-13.63587219 112.13270645 -13.64112915 111.01980743 -13.64654541 109.8731842 C-13.65973001 106.20095716 -13.65101238 102.52916492 -13.64086914 98.85693359 C-13.64289031 96.30155352 -13.6458021 93.746174 -13.64956665 91.1907959 C-13.65398794 85.83774791 -13.64785213 80.48485521 -13.63354492 75.13183594 C-13.6172197 68.95261972 -13.62250874 62.77370051 -13.63902414 56.59449148 C-13.6543043 50.63788486 -13.65265415 44.68137012 -13.64387894 38.7247467 C-13.64187836 36.19539854 -13.64433119 33.6660428 -13.6513176 31.13670349 C-13.65894018 27.60118561 -13.64731562 24.06623721 -13.63061523 20.53076172 C-13.63668793 19.48642471 -13.64276062 18.44208771 -13.64901733 17.36610413 C-13.60223748 12.01757912 -13.47247054 7.88775891 -10.24243164 3.38818359 C-6.82904201 0.71119269 -4.29255398 0.01145706 0 0 Z " fill="#969696" transform="translate(509.242431640625,31.61181640625)"/>
<path d="M0 0 C4.08531867 -0.6714203 8.24112443 -0.46281884 12.375 -0.4375 C13.52484375 -0.45748047 14.6746875 -0.47746094 15.859375 -0.49804688 C16.96539063 -0.49740234 18.07140625 -0.49675781 19.2109375 -0.49609375 C20.73146729 -0.49887329 20.73146729 -0.49887329 22.28271484 -0.50170898 C25.74147835 0.13690368 26.85321411 1.25853491 29 4 C30.02075195 6.04296875 30.02075195 6.04296875 30.73828125 8.1875 C31.00060547 8.96867187 31.26292969 9.74984375 31.53320312 10.5546875 C31.79037109 11.36164062 32.04753906 12.16859375 32.3125 13 C32.72725586 14.21042969 32.72725586 14.21042969 33.15039062 15.4453125 C35.30125031 22.01166499 35.30125031 22.01166499 34 26 C31.38592128 20.63809899 29.50771472 15.96564796 29 10 C28.34 10 27.68 10 27 10 C26.67 8.02 26.34 6.04 26 4 C17.75 4 9.5 4 1 4 C1.99 9.94 2.98 15.88 4 22 C4.99 22 5.98 22 7 22 C9.15550707 26.51931943 9.62249591 30.898669 10.125 35.8125 C10.21136719 36.60076172 10.29773437 37.38902344 10.38671875 38.20117188 C10.59751064 40.13343084 10.79962896 42.06663263 11 44 C8.65189694 41.65189694 8.17822143 39.98112278 7.16015625 36.8359375 C6.81919922 35.79566406 6.47824219 34.75539062 6.12695312 33.68359375 C5.77568359 32.59175781 5.42441406 31.49992187 5.0625 30.375 C4.36730012 28.23651874 3.67071244 26.09848809 2.97265625 23.9609375 C2.63983643 22.93863037 2.3070166 21.91632324 1.96411133 20.86303711 C1.12392373 18.36800545 0.22145361 15.91722038 -0.734375 13.46484375 C-2.11076602 9.69676093 -2.39016159 6.97964818 -2 3 C-1.34 2.01 -0.68 1.02 0 0 Z " fill="#DE393A" transform="translate(14,38)"/>
<path d="M0 0 C0.66 0 1.32 0 2 0 C0.85569823 3.87302138 -0.23320098 7.00263439 -3 10 C-3.66 10 -4.32 10 -5 10 C-5.37125 10.86625 -5.37125 10.86625 -5.75 11.75 C-7.18299988 14.32939979 -8.78424676 16.06121592 -11 18 C-11.66 18 -12.32 18 -13 18 C-13 18.66 -13 19.32 -13 20 C-13.66 20 -14.32 20 -15 20 C-15 20.66 -15 21.32 -15 22 C-15.99 22 -16.98 22 -18 22 C-18 22.66 -18 23.32 -18 24 C-19.32 24 -20.64 24 -22 24 C-22 24.66 -22 25.32 -22 26 C-23.32 26 -24.64 26 -26 26 C-26 26.66 -26 27.32 -26 28 C-38.45199657 31.94518703 -49.98991153 32.49338142 -63 32 C-63 31.34 -63 30.68 -63 30 C-64.19625 30.04125 -65.3925 30.0825 -66.625 30.125 C-70.42329953 30.13851708 -73.44975618 29.42009753 -77 28 C-77 27.34 -77 26.68 -77 26 C-78.32 26 -79.64 26 -81 26 C-81 25.34 -81 24.68 -81 24 C-82.32 23.67 -83.64 23.34 -85 23 C-83.3125 22.3125 -83.3125 22.3125 -81 22 C-80.278125 22.45375 -79.55625 22.9075 -78.8125 23.375 C-75.49380675 25.29246721 -73.05036558 25.4344916 -69.28125 25.59375 C-67 26 -67 26 -64.73828125 27.48828125 C-61.04509626 29.52717225 -57.84176985 29.55756305 -53.6875 29.6875 C-52.94693359 29.72166016 -52.20636719 29.75582031 -51.44335938 29.79101562 C-49.62941836 29.87293554 -47.81473647 29.93815822 -46 30 C-46 29.34 -46 28.68 -46 28 C-45.154375 27.95101562 -44.30875 27.90203125 -43.4375 27.8515625 C-37.05290815 27.43075986 -31.14207405 26.80649237 -25 25 C-25.495 23.515 -25.495 23.515 -26 22 C-24.35 22 -22.7 22 -21 22 C-21 21.34 -21 20.68 -21 20 C-20.34 20 -19.68 20 -19 20 C-19 19.34 -19 18.68 -19 18 C-17.68 18 -16.36 18 -15 18 C-15 17.34 -15 16.68 -15 16 C-14.34 16 -13.68 16 -13 16 C-13 15.34 -13 14.68 -13 14 C-12.29875 13.835 -11.5975 13.67 -10.875 13.5 C-5.55830525 10.7260723 -2.5159359 5.3180446 0 0 Z " fill="#801C1C" transform="translate(247,136)"/>
<path d="M0 0 C0.66 0.33 1.32 0.66 2 1 C1.22095672 12.52164009 1.22095672 12.52164009 -1 18 C-0.01 18 0.98 18 2 18 C2 17.34 2 16.68 2 16 C4.64738916 14.5393715 5.89448334 14 9 14 C9 13.34 9 12.68 9 12 C10.32 12 11.64 12 13 12 C13 11.34 13 10.68 13 10 C13.99 10 14.98 10 16 10 C16 9.34 16 8.68 16 8 C19.03759984 6.48120008 22.17588587 6.98786466 25.5 7.0625 C34.59535417 7.15701038 41.81693575 6.19132559 50 2 C50.99 2.33 51.98 2.66 53 3 C46.58278146 6.77483444 46.58278146 6.77483444 43.25 8.0625 C40.94717409 8.79641207 40.94717409 8.79641207 39.859375 10.5390625 C36.89558541 12.86775432 33.60426829 12.39266611 30 12.3125 C29.27554688 12.31572266 28.55109375 12.31894531 27.8046875 12.32226562 C24.0192971 12.28385299 22.21704106 12.14469404 19 10 C19 10.66 19 11.32 19 12 C17.68 12 16.36 12 15 12 C14.34 13.32 13.68 14.64 13 16 C11.68 16 10.36 16 9 16 C9 16.66 9 17.32 9 18 C6.03 18.33 3.06 18.66 0 19 C0 19.66 0 20.32 0 21 C-0.99 21 -1.98 21 -3 21 C-2.29411026 13.94110263 -1.21786614 6.98795036 0 0 Z " fill="#D73535" transform="translate(167,126)"/>
<path d="M0 0 C1.03125 0.01804688 2.0625 0.03609375 3.125 0.0546875 C5.66761064 0.10177288 8.20833162 0.1675195 10.75 0.25 C10.75 0.91 10.75 1.57 10.75 2.25 C11.74 2.25 12.73 2.25 13.75 2.25 C14.9609375 3.73120117 14.9609375 3.73120117 16.125 5.79296875 C16.55296875 6.53740234 16.9809375 7.28183594 17.421875 8.04882812 C17.86015625 8.83708984 18.2984375 9.62535156 18.75 10.4375 C19.18828125 11.20642578 19.6265625 11.97535156 20.078125 12.76757812 C20.92833159 14.25928096 21.77357153 15.75382798 22.61328125 17.25146484 C23.55922108 18.91457985 24.55489739 20.5492848 25.5625 22.17578125 C26.75 24.25 26.75 24.25 26.75 26.25 C27.41 26.25 28.07 26.25 28.75 26.25 C29.245 29.22 29.245 29.22 29.75 32.25 C15.75 15.23461538 15.75 15.23461538 15.75 8.25 C15.09 8.25 14.43 8.25 13.75 8.25 C13.42 6.93 13.09 5.61 12.75 4.25 C10.11 3.92 7.47 3.59 4.75 3.25 C4.75 3.58 4.75 3.91 4.75 4.25 C-0.86 4.25 -6.47 4.25 -12.25 4.25 C-11.22536058 11.80671574 -8.163987 17.07096362 -4.02734375 23.33203125 C-2.53507417 25.78197712 -1.68915348 27.45968634 -1.25 30.25 C-4.73331435 27.23112756 -6.04157144 24.68090471 -7.25 20.25 C-7.91 20.25 -8.57 20.25 -9.25 20.25 C-11.29169485 17.34451118 -12.25 15.84857954 -12.25 12.25 C-12.91 12.25 -13.57 12.25 -14.25 12.25 C-15.69404332 5.02978339 -15.69404332 5.02978339 -13.96875 2 C-9.58432792 -0.82215674 -5.08749127 -0.16786139 0 0 Z " fill="#B63133" transform="translate(279.25,37.75)"/>
<path d="M0 0 C0.99 0 1.98 0 3 0 C2.02318817 2.17904178 1.30582194 3.74615918 -0.55040932 5.28688335 C-2.61124122 7.72236082 -2.37742479 9.43473101 -2.38095093 12.59736633 C-2.3894104 13.76238678 -2.39786987 14.92740723 -2.40658569 16.12773132 C-2.400513 17.40727188 -2.39444031 18.68681244 -2.38818359 20.00512695 C-2.39224844 21.36527936 -2.39758983 22.72542846 -2.40411377 24.08557129 C-2.4178076 27.78204172 -2.4124793 31.47826136 -2.40297651 35.17473626 C-2.39538592 39.04367774 -2.40242428 42.91259761 -2.40713501 46.78153992 C-2.41259628 53.28237768 -2.4053933 59.78311329 -2.39111328 66.28393555 C-2.37480658 73.79398253 -2.38005927 81.30378492 -2.3965925 88.81382591 C-2.41022141 95.26320495 -2.41211955 101.71251047 -2.40427649 108.16189927 C-2.39960502 112.01300097 -2.39896016 115.86398789 -2.40888596 119.71508217 C-2.4175731 123.33898183 -2.41150211 126.96256755 -2.39420319 130.58643341 C-2.38836389 132.54617892 -2.39724046 134.50595106 -2.40658569 136.46568298 C-2.38737592 144.7071219 -2.38737592 144.7071219 1 152 C-0.875 151.5 -0.875 151.5 -3 150 C-5.36481257 143.04561067 -5.28965771 136.28283297 -5.2746582 128.99389648 C-5.2823246 127.06317291 -5.2823246 127.06317291 -5.29014587 125.09344482 C-5.30346597 121.58320067 -5.30412265 118.07306464 -5.30158257 114.56280017 C-5.30050861 111.62539185 -5.30540681 108.68800503 -5.310188 105.75060135 C-5.32125788 98.81947614 -5.32173408 91.88840515 -5.31567383 84.95727539 C-5.30962851 77.81921509 -5.32196489 70.68135162 -5.3432439 63.54332489 C-5.36087947 57.40041713 -5.36685838 51.25757194 -5.36360615 45.11463982 C-5.36179708 41.45192067 -5.36439222 37.78934213 -5.37832069 34.12664604 C-5.39327062 30.04320417 -5.3839119 25.96016175 -5.37231445 21.87670898 C-5.37995819 20.67079605 -5.38760193 19.46488312 -5.39547729 18.22242737 C-5.35122408 11.17438021 -5.24443651 5.24443651 0 0 Z " fill="#929292" transform="translate(862,12)"/>
<path d="M0 0 C2.78515625 -0.328125 2.78515625 -0.328125 6.0625 -0.25 C7.14660156 -0.23453125 8.23070312 -0.2190625 9.34765625 -0.203125 C12 0 12 0 13 1 C13.14355117 5.00220653 13.04216403 8.99441683 13 13 C8.38 13 3.76 13 -1 13 C-2.5635348 9.87293041 -2.39958487 6.42017557 -2 3 C-1.34 2.01 -0.68 1.02 0 0 Z " fill="#CBCBCB" transform="translate(442,131)"/>
<path d="M0 0 C4.62 0 9.24 0 14 0 C14 4.29 14 8.58 14 13 C11.16443413 14.41778293 9.0091294 13.86257622 5.875 13.5625 C4.23144531 13.40974609 4.23144531 13.40974609 2.5546875 13.25390625 C1.71164062 13.17011719 0.86859375 13.08632812 0 13 C-0.19551338 11.39679026 -0.38111983 9.79237014 -0.5625 8.1875 C-0.71912109 6.84751953 -0.71912109 6.84751953 -0.87890625 5.48046875 C-1 3 -1 3 0 0 Z " fill="#CFCFCF" transform="translate(441,112)"/>
<path d="M0 0 C1.97909398 -0.02686553 3.95828971 -0.04633375 5.9375 -0.0625 C7.03964844 -0.07410156 8.14179688 -0.08570312 9.27734375 -0.09765625 C12 0 12 0 13 1 C13.07244053 3.01964199 13.08377188 5.04167124 13.0625 7.0625 C13.05347656 8.16722656 13.04445313 9.27195312 13.03515625 10.41015625 C13.02355469 11.26480469 13.01195312 12.11945313 13 13 C8.50201488 13.98123585 4.59632677 14.22604886 0 14 C-2.58844848 11.41155152 -2.23877442 9.60116333 -2.265625 6.0703125 C-1.96218077 3.70523244 -1.16625267 2.06408211 0 0 Z " fill="#FAFAFA" transform="translate(420,112)"/>
<path d="M0 0 C1.670625 0.061875 1.670625 0.061875 3.375 0.125 C4.88429383 3.14358766 4.60010073 6.25400954 4.625 9.5625 C4.645625 10.24376953 4.66625 10.92503906 4.6875 11.62695312 C4.71070505 14.58849784 4.71855189 16.62204795 3.01953125 19.109375 C1.375 20.125 1.375 20.125 -1.1875 19.9375 C-3.625 19.125 -3.625 19.125 -5.625 17.125 C-5.82349071 14.57964859 -5.90351775 12.16783241 -5.875 9.625 C-5.88273437 8.93535156 -5.89046875 8.24570313 -5.8984375 7.53515625 C-5.8777815 2.23689208 -5.78434718 0.19946025 0 0 Z " fill="#C3C3C3" transform="translate(451.625,67.875)"/>
<path d="M0 0 C2.3125 0.8125 2.3125 0.8125 3.3125 1.8125 C3.41236975 4.65585048 3.45127881 7.46947163 3.4375 10.3125 C3.44136719 11.11042969 3.44523437 11.90835938 3.44921875 12.73046875 C3.43910767 18.68589233 3.43910767 18.68589233 2.3125 19.8125 C-1.125 20.0625 -1.125 20.0625 -4.6875 19.8125 C-7.04240728 16.28013908 -7.01493705 14.56529632 -7.0625 10.375 C-7.09085937 9.24191406 -7.11921875 8.10882813 -7.1484375 6.94140625 C-6.6875 3.8125 -6.6875 3.8125 -4.83203125 1.390625 C-2.6875 -0.1875 -2.6875 -0.1875 0 0 Z " fill="#C3C3C3" transform="translate(404.6875,66.1875)"/>
<path d="M0 0 C1.08152344 -0.02578125 2.16304688 -0.0515625 3.27734375 -0.078125 C4.19644531 0.03015625 5.11554688 0.1384375 6.0625 0.25 C8.36393236 3.70214853 8.20083854 4.48479324 7.6875 8.4375 C7.52121094 9.78908203 7.52121094 9.78908203 7.3515625 11.16796875 C7.20847656 12.19857422 7.20847656 12.19857422 7.0625 13.25 C5.10485617 13.44456705 3.14634679 13.63044247 1.1875 13.8125 C0.09695313 13.91691406 -0.99359375 14.02132812 -2.1171875 14.12890625 C-4.9375 14.25 -4.9375 14.25 -6.9375 13.25 C-6.96436553 11.27090602 -6.98383375 9.29171029 -7 7.3125 C-7.01160156 6.21035156 -7.02320313 5.10820313 -7.03515625 3.97265625 C-6.85843922 -0.95421442 -4.36523713 0.06228638 0 0 Z " fill="#D1D1D1" transform="translate(403.9375,111.75)"/>
<path d="M0 0 C1.35798706 0.0012085 1.35798706 0.0012085 2.7434082 0.00244141 C3.65324463 0.00324707 4.56308105 0.00405273 5.50048828 0.00488281 C11.6780782 0.06128906 17.34617093 0.43133041 23.3059082 2.18994141 C23.8009082 3.17994141 23.8009082 3.17994141 24.3059082 4.18994141 C21.9309082 5.25244141 21.9309082 5.25244141 19.3059082 6.18994141 C18.6459082 5.85994141 17.9859082 5.52994141 17.3059082 5.18994141 C15.37033143 5.09294295 13.43141283 5.05917939 11.4934082 5.05712891 C9.75704102 5.05519531 9.75704102 5.05519531 7.9855957 5.05322266 C6.16415039 5.05902344 6.16415039 5.05902344 4.3059082 5.06494141 C3.09161133 5.06107422 1.87731445 5.05720703 0.6262207 5.05322266 C-0.53135742 5.05451172 -1.68893555 5.05580078 -2.8815918 5.05712891 C-4.48067383 5.0588208 -4.48067383 5.0588208 -6.11206055 5.06054688 C-8.6809132 5.01589943 -8.6809132 5.01589943 -10.6940918 6.18994141 C-13.99876309 6.71358439 -17.31103943 7.15130092 -20.62768555 7.59228516 C-23.85068274 8.0160775 -23.85068274 8.0160775 -26.6940918 10.18994141 C-28.0140918 10.18994141 -29.3340918 10.18994141 -30.6940918 10.18994141 C-30.6940918 9.52994141 -30.6940918 8.86994141 -30.6940918 8.18994141 C-28.03887298 6.83268315 -25.3702671 5.50534961 -22.6940918 4.18994141 C-21.9103418 3.79806641 -21.1265918 3.40619141 -20.3190918 3.00244141 C-16.84347703 1.92665588 -13.42307023 1.69840286 -9.8034668 1.43603516 C-6.39031096 1.03783364 -3.85128119 0.03288882 0 0 Z " fill="#9E2524" transform="translate(191.694091796875,35.81005859375)"/>
<path d="M0 0 C1.093125 0.00257813 2.18625 0.00515625 3.3125 0.0078125 C4.405625 0.00523437 5.49875 0.00265625 6.625 0 C9.3125 0.1328125 9.3125 0.1328125 10.3125 1.1328125 C10.45605117 5.13501903 10.35466403 9.12722933 10.3125 13.1328125 C5.6925 13.1328125 1.0725 13.1328125 -3.6875 13.1328125 C-3.78515625 3.85546875 -3.78515625 3.85546875 -3.6875 1.1328125 C-2.6875 0.1328125 -2.6875 0.1328125 0 0 Z " fill="#D0D0D0" transform="translate(422.6875,130.8671875)"/>
<path d="M0 0 C1.093125 0.00257813 2.18625 0.00515625 3.3125 0.0078125 C4.405625 0.00523437 5.49875 0.00265625 6.625 0 C9.3125 0.1328125 9.3125 0.1328125 10.3125 1.1328125 C10.45605117 5.13501903 10.35466403 9.12722933 10.3125 13.1328125 C5.6925 13.1328125 1.0725 13.1328125 -3.6875 13.1328125 C-3.78515625 3.85546875 -3.78515625 3.85546875 -3.6875 1.1328125 C-2.6875 0.1328125 -2.6875 0.1328125 0 0 Z " fill="#C7C7C7" transform="translate(400.6875,130.8671875)"/>
<path d="M0 0 C1.10195948 3.30587845 0.958868 3.83035649 -0.1796875 6.94140625 C-0.44910156 7.68970703 -0.71851563 8.43800781 -0.99609375 9.20898438 C-1.43115234 10.37397461 -1.43115234 10.37397461 -1.875 11.5625 C-2.29845703 12.73329102 -2.29845703 12.73329102 -2.73046875 13.92773438 C-4.78447421 19.56894841 -4.78447421 19.56894841 -6 22 C-6.99 22 -7.98 22 -9 22 C-9 22.66 -9 23.32 -9 24 C-18.9 24 -28.8 24 -39 24 C-39 22.66666667 -39 21.33333333 -39 20 C-28.44 19.67 -17.88 19.34 -7 19 C-5.35 14.05 -3.7 9.1 -2 4 C-1.34 2.68 -0.68 1.36 0 0 Z " fill="#9F2222" transform="translate(95,142)"/>
<path d="M0 0 C1.00224609 -0.02449219 2.00449219 -0.04898438 3.03710938 -0.07421875 C10.37591012 -0.10359354 10.37591012 -0.10359354 13.71875 2.2265625 C15.63594388 5.29184341 15.68168448 6.79748965 15.0625 10.375 C13.59438712 13.18930634 11.9000216 15.7893446 10.0625 18.375 C9.4375 16.5625 9.4375 16.5625 9.0625 14.375 C9.7225 13.385 10.3825 12.395 11.0625 11.375 C11.7225 11.375 12.3825 11.375 13.0625 11.375 C12.87785634 7.03315798 12.87785634 7.03315798 11.0625 3.375 C9.42993242 3.21785346 7.79114662 3.12414586 6.15234375 3.05859375 C5.16298828 3.01669922 4.17363281 2.97480469 3.15429688 2.93164062 C2.11337891 2.89232422 1.07246094 2.85300781 0 2.8125 C-1.56717773 2.74772461 -1.56717773 2.74772461 -3.16601562 2.68164062 C-5.75636884 2.57518775 -8.34682186 2.4731724 -10.9375 2.375 C-11.2365625 2.97828125 -11.535625 3.5815625 -11.84375 4.203125 C-13.09593028 6.68959727 -14.39236756 9.05730135 -15.9375 11.375 C-16.5975 11.375 -17.2575 11.375 -17.9375 11.375 C-18.04191406 12.09042969 -18.14632813 12.80585937 -18.25390625 13.54296875 C-19.01272267 16.68663677 -20.20243706 18.92715773 -21.875 21.6875 C-22.39964844 22.57050781 -22.92429687 23.45351563 -23.46484375 24.36328125 C-23.95082031 25.02714844 -24.43679688 25.69101562 -24.9375 26.375 C-25.5975 26.375 -26.2575 26.375 -26.9375 26.375 C-27.5975 28.355 -28.2575 30.335 -28.9375 32.375 C-29.5975 32.375 -30.2575 32.375 -30.9375 32.375 C-29.51913643 27.2173143 -27.26358425 22.57524742 -23.9375 18.375 C-23.2775 18.375 -22.6175 18.375 -21.9375 18.375 C-21.64875 17.4675 -21.36 16.56 -21.0625 15.625 C-20.17218224 13.05297092 -19.22255587 10.76153234 -17.9375 8.375 C-17.2775 8.375 -16.6175 8.375 -15.9375 8.375 C-15.669375 7.42625 -15.40125 6.4775 -15.125 5.5 C-12.50019666 -1.4073772 -6.29580705 0.00806638 0 0 Z " fill="#5F100F" transform="translate(351.9375,37.625)"/>
<path d="M0 0 C2.375 0.25 2.375 0.25 5 1 C5.69937532 2.31647119 6.36729133 3.65022151 7 5 C9.05000871 5.80528889 9.05000871 5.80528889 11 6 C12.77044646 11.79258293 12.18449117 18.00640787 12.1875 24 C12.19974609 25.28390625 12.21199219 26.5678125 12.22460938 27.890625 C12.22750977 29.73914063 12.22750977 29.73914063 12.23046875 31.625 C12.23457764 32.75164062 12.23868652 33.87828125 12.24291992 35.0390625 C11.92512967 38.91259033 11.06794185 41.0337669 8.1953125 43.6328125 C7.51210937 44.12523437 6.82890625 44.61765625 6.125 45.125 C5.44695312 45.62257812 4.76890625 46.12015625 4.0703125 46.6328125 C2.1024405 47.93235061 0.13146316 48.99639627 -2 50 C-1.04956626 48.66102417 -0.08940853 47.32894573 0.875 46 C1.67550781 44.88625 1.67550781 44.88625 2.4921875 43.75 C3.23855469 42.88375 3.23855469 42.88375 4 42 C4.66 42 5.32 42 6 42 C9.93370935 30.76083043 11.69555913 21.36209369 7 10 C6.00928046 8.65975653 5.01083965 7.32513433 4 6 C4 5.34 4 4.68 4 4 C3.34 4 2.68 4 2 4 C1.34 2.68 0.68 1.36 0 0 Z " fill="#6D1313" transform="translate(225,76)"/>
<path d="M0 0 C0.66 0 1.32 0 2 0 C1.31905428 3.80672744 0.29428157 7.37483383 -0.92578125 11.04296875 C-1.50295898 12.77836914 -1.50295898 12.77836914 -2.09179688 14.54882812 C-2.49462891 15.74958984 -2.89746094 16.95035156 -3.3125 18.1875 C-3.70373047 19.36892578 -4.09496094 20.55035156 -4.49804688 21.76757812 C-6.54836431 27.90492964 -8.69750544 33.96252855 -11.16772461 39.9440918 C-12.23871116 42.58967048 -13.14076514 45.27908961 -14 48 C-14.33 48 -14.66 48 -15 48 C-15 45.36 -15 42.72 -15 40 C-14.34 40 -13.68 40 -13 40 C-12.81824219 39.2265625 -12.63648437 38.453125 -12.44921875 37.65625 C-10.14565044 28.11120799 -10.14565044 28.11120799 -8.375 23.75 C-6.88606539 19.68926926 -6.38262526 16.28540288 -6 12 C-5.34 12 -4.68 12 -4 12 C-4.04125 10.906875 -4.0825 9.81375 -4.125 8.6875 C-4 5 -4 5 -2 2 C-1.34 2 -0.68 2 0 2 C0 1.34 0 0.68 0 0 Z " fill="#631211" transform="translate(111,94)"/>
<path d="M0 0 C0.99 0 1.98 0 3 0 C3 0.66 3 1.32 3 2 C3.99 2 4.98 2 6 2 C6.103125 3.093125 6.20625 4.18625 6.3125 5.3125 C7.03935888 9.46274224 7.03935888 9.46274224 10 12 C12.70075599 12.5965388 12.70075599 12.5965388 15.76171875 12.73046875 C16.87998047 12.81103516 17.99824219 12.89160156 19.15039062 12.97460938 C20.31763672 13.04486328 21.48488281 13.11511719 22.6875 13.1875 C24.45577148 13.3102832 24.45577148 13.3102832 26.25976562 13.43554688 C29.17257666 13.63602375 32.08564493 13.82365065 35 14 C34.67 14.66 34.34 15.32 34 16 C26.08 16 18.16 16 10 16 C10 15.34 10 14.68 10 14 C9.401875 13.95875 8.80375 13.9175 8.1875 13.875 C4.90249924 12.5609997 4.42680407 10.11302707 3 7 C2.34 6.67 1.68 6.34 1 6 C0.375 2.9375 0.375 2.9375 0 0 Z " fill="#681715" transform="translate(332,150)"/>
<path d="M0 0 C0 2.95274099 -0.43891831 4.49058403 -1.5 7.1875 C-1.7784375 7.90292969 -2.056875 8.61835938 -2.34375 9.35546875 C-2.5603125 9.89816406 -2.776875 10.44085938 -3 11 C-2.34 11.33 -1.68 11.66 -1 12 C-1 13.32 -1 14.64 -1 16 C-1.99 16 -2.98 16 -4 16 C-4.33 16.99 -4.66 17.98 -5 19 C2.92 19.33 10.84 19.66 19 20 C18.67 20.66 18.34 21.32 18 22 C14.22923111 22.05799124 10.45857666 22.09359306 6.6875 22.125 C5.61564453 22.14175781 4.54378906 22.15851563 3.43945312 22.17578125 C2.41142578 22.18222656 1.38339844 22.18867188 0.32421875 22.1953125 C-0.62364502 22.20578613 -1.57150879 22.21625977 -2.5480957 22.22705078 C-5 22 -5 22 -8 20 C-8.77075186 14.82922778 -7.0868477 11.63177413 -4.5625 7.1875 C-3.92441406 6.04667969 -3.28632813 4.90585938 -2.62890625 3.73046875 C-1 1 -1 1 0 0 Z " fill="#53110F" transform="translate(270,144)"/>
<path d="M0 0 C0.87720703 -0.00386719 1.75441406 -0.00773437 2.65820312 -0.01171875 C22.13571751 0.01698798 22.13571751 0.01698798 28.25 5.5625 C30.5625 8.125 30.5625 8.125 32.5625 11.125 C29.5905615 10.00048273 27.22809313 8.90206209 24.5625 7.125 C24.5625 6.465 24.5625 5.805 24.5625 5.125 C22.9125 5.125 21.2625 5.125 19.5625 5.125 C19.5625 4.465 19.5625 3.805 19.5625 3.125 C17.644375 3.1559375 17.644375 3.1559375 15.6875 3.1875 C11.8125 3.25 11.8125 3.25 9.5625 2.125 C7.0509113 2.02707108 4.57340234 1.98592017 2.0625 2 C1.37285156 1.99613281 0.68320313 1.99226563 -0.02734375 1.98828125 C-3.85916214 1.93459134 -3.85916214 1.93459134 -7.4375 3.125 C-8.87036535 3.32768429 -10.30923758 3.48939883 -11.75 3.625 C-15.03078164 3.95836975 -18.21611836 4.39759124 -21.4375 5.125 C-20.68579102 3.17138672 -20.68579102 3.17138672 -19.4375 1.125 C-17.64038086 0.52001953 -17.64038086 0.52001953 -15.46484375 0.3828125 C-14.65901855 0.32770508 -13.85319336 0.27259766 -13.02294922 0.21582031 C-8.67883112 0.0632224 -4.34695986 -0.01907956 0 0 Z " fill="#600A0B" transform="translate(192.4375,64.875)"/>
<path d="M0 0 C2.3986335 1.09976872 3.95873215 2.2810376 6 4 C3 4 3 4 1 3 C-3.78297453 2.19093207 -8.17198707 1.78731235 -12.33544922 4.54931641 C-14.52572234 6.70390902 -16.49106759 8.93566201 -18.4375 11.3125 C-19.78810269 12.8730542 -21.14089158 14.43171961 -22.49609375 15.98828125 C-23.07544678 16.68477783 -23.6547998 17.38127441 -24.25170898 18.09887695 C-26.02312527 20.02514684 -27.86178784 21.50017387 -30 23 C-30.66 22.67 -31.32 22.34 -32 22 C-30.82630859 20.73542969 -30.82630859 20.73542969 -29.62890625 19.4453125 C-28.60665175 18.33865166 -27.58452284 17.23187479 -26.5625 16.125 C-26.04623047 15.56941406 -25.52996094 15.01382813 -24.99804688 14.44140625 C-22.17895264 11.45250685 -22.17895264 11.45250685 -20 8 C-19.34 8 -18.68 8 -18 8 C-17.79375 7.4225 -17.5875 6.845 -17.375 6.25 C-13.36984624 -0.30388797 -7.05389416 -1.18706309 0 0 Z " fill="#959595" transform="translate(939,55)"/>
<path d="M0 0 C7.26 0 14.52 0 22 0 C22 0.66 22 1.32 22 2 C22.99 2 23.98 2 25 2 C26.2109375 3.48120117 26.2109375 3.48120117 27.375 5.54296875 C27.80296875 6.28740234 28.2309375 7.03183594 28.671875 7.79882812 C29.32929688 8.9812207 29.32929688 8.9812207 30 10.1875 C30.65742188 11.34088867 30.65742188 11.34088867 31.328125 12.51757812 C32.17833159 14.00928096 33.02357153 15.50382798 33.86328125 17.00146484 C34.80922108 18.66457985 35.80489739 20.2992848 36.8125 21.92578125 C38 24 38 24 38 26 C38.66 26 39.32 26 40 26 C40.495 28.97 40.495 28.97 41 32 C27 14.98461538 27 14.98461538 27 8 C26.34 8 25.68 8 25 8 C24.896875 7.360625 24.79375 6.72125 24.6875 6.0625 C24.460625 5.381875 24.23375 4.70125 24 4 C23.01 3.67 22.02 3.34 21 3 C21 2.34 21 1.68 21 1 C10.11 1.495 10.11 1.495 -1 2 C-0.67 1.34 -0.34 0.68 0 0 Z " fill="#560B0A" transform="translate(268,38)"/>
<path d="M0 0 C0.99 0.33 1.98 0.66 3 1 C3 1.66 3 2.32 3 3 C2.01 3.33 1.02 3.66 0 4 C-0.33 4.99 -0.66 5.98 -1 7 C-1.66 7 -2.32 7 -3 7 C-4.07525194 9.65228812 -5.09456151 12.28368454 -6 15 C-6.66 15 -7.32 15 -8 15 C-8.226875 15.825 -8.45375 16.65 -8.6875 17.5 C-9.98801637 20.96804366 -11.56048057 23.68699088 -13.5625 26.7734375 C-15.17873528 29.27684541 -16.71801164 31.81923096 -18.25 34.375 C-18.75015625 35.20773438 -19.2503125 36.04046875 -19.765625 36.8984375 C-20.55412862 38.24088986 -21.30373622 39.60747243 -22 41 C-22.99 40.67 -23.98 40.34 -25 40 C-16.96277501 26.48814349 -8.87301312 12.98489724 0 0 Z " fill="#5F110E" transform="translate(314,123)"/>
<path d="M0 0 C1.15876454 4.17715925 1.27522553 7.66519787 1 12 C-0.4375 13.8125 -0.4375 13.8125 -2 15 C-2.33 15.99 -2.66 16.98 -3 18 C-4.65 18 -6.3 18 -8 18 C-7.83837003 10.72665157 -4.04781684 5.84449794 0 0 Z " fill="#E53A35" transform="translate(150,56)"/>
<path d="M0 0 C0.33 0 0.66 0 1 0 C1.10957031 0.556875 1.21914062 1.11375 1.33203125 1.6875 C2.17264131 5.73336306 3.13122558 9.57917271 4.625 13.4375 C6 17 6 17 6 19 C6.99 19 7.98 19 9 19 C11.15550707 23.51931943 11.62249591 27.898669 12.125 32.8125 C12.21136719 33.60076172 12.29773437 34.38902344 12.38671875 35.20117188 C12.59751064 37.13343084 12.79962896 39.06663263 13 41 C10.65189694 38.65189694 10.17822143 36.98112278 9.16015625 33.8359375 C8.6487207 32.27552734 8.6487207 32.27552734 8.12695312 30.68359375 C7.77568359 29.59175781 7.42441406 28.49992187 7.0625 27.375 C6.36730012 25.23651874 5.67071244 23.09848809 4.97265625 20.9609375 C4.63999756 19.93838867 4.30733887 18.91583984 3.96459961 17.86230469 C3.1245258 15.36951165 2.2182886 12.92471251 1.2578125 10.4765625 C-0.14857104 6.58935333 -0.25451182 4.07218905 0 0 Z " fill="#741617" transform="translate(12,41)"/>
<path d="M0 0 C2.51181482 0.4186358 4.63669524 0.80598777 6.89453125 2.01171875 C9.20345743 3.09550043 10.90479543 3.29264861 13.4375 3.4375 C17.29421276 3.7938959 19.91008006 4.50812908 23 7 C23 7.66 23 8.32 23 9 C30.59 8.67 38.18 8.34 46 8 C42.74610012 10.16926659 41.86604043 10.24080049 38.11328125 10.1953125 C37.17548828 10.18886719 36.23769531 10.18242187 35.27148438 10.17578125 C33.80678711 10.15064453 33.80678711 10.15064453 32.3125 10.125 C31.32443359 10.11597656 30.33636719 10.10695312 29.31835938 10.09765625 C26.87866235 10.0740843 24.43945303 10.04118022 22 10 C22 9.34 22 8.68 22 8 C20.80375 8.04125 19.6075 8.0825 18.375 8.125 C14.57670047 8.13851708 11.55024382 7.42009753 8 6 C8 5.34 8 4.68 8 4 C6.68 4 5.36 4 4 4 C4 3.34 4 2.68 4 2 C2.68 1.67 1.36 1.34 0 1 C0 0.67 0 0.34 0 0 Z " fill="#671112" transform="translate(162,158)"/>
<path d="M0 0 C4.0830942 -0.11614929 8.16576377 -0.18723457 12.25 -0.25 C13.40886719 -0.28351562 14.56773438 -0.31703125 15.76171875 -0.3515625 C16.87675781 -0.36445312 17.99179687 -0.37734375 19.140625 -0.390625 C20.16704102 -0.41157227 21.19345703 -0.43251953 22.25097656 -0.45410156 C25.75852961 0.12529885 26.83913591 1.22542265 29 4 C30.02075195 6.04296875 30.02075195 6.04296875 30.73828125 8.1875 C31.00060547 8.96867187 31.26292969 9.74984375 31.53320312 10.5546875 C31.79037109 11.36164062 32.04753906 12.16859375 32.3125 13 C32.72725586 14.21042969 32.72725586 14.21042969 33.15039062 15.4453125 C35.30125031 22.01166499 35.30125031 22.01166499 34 26 C30.52901284 18.70564119 27 11.1849701 27 3 C23.60543565 2.23672518 20.46530859 1.87185152 16.98828125 1.8671875 C16.06595703 1.86589844 15.14363281 1.86460938 14.19335938 1.86328125 C12.76733398 1.86908203 12.76733398 1.86908203 11.3125 1.875 C9.86907227 1.86919922 9.86907227 1.86919922 8.39648438 1.86328125 C7.47802734 1.86457031 6.55957031 1.86585937 5.61328125 1.8671875 C4.77579346 1.86831543 3.93830566 1.86944336 3.07543945 1.87060547 C0.93803315 1.86819533 0.93803315 1.86819533 -1 3 C-0.67 2.01 -0.34 1.02 0 0 Z " fill="#620D0D" transform="translate(14,38)"/>
<path d="M0 0 C0.66 0.33 1.32 0.66 2 1 C1.22095672 12.52164009 1.22095672 12.52164009 -1 18 C-0.01 18 0.98 18 2 18 C2 17.34 2 16.68 2 16 C4.64738916 14.5393715 5.89448334 14 9 14 C9 13.34 9 12.68 9 12 C10.32 12 11.64 12 13 12 C13 11.34 13 10.68 13 10 C13.99 10.33 14.98 10.66 16 11 C15.34 11 14.68 11 14 11 C13.67 11.99 13.34 12.98 13 14 C9.08968731 16.64951093 4.69056641 18.4136792 0 19 C0 19.66 0 20.32 0 21 C-0.99 21 -1.98 21 -3 21 C-2.29411026 13.94110263 -1.21786614 6.98795036 0 0 Z " fill="#59100E" transform="translate(167,126)"/>
<path d="M0 0 C5.66030041 5.17275352 7.63644137 11.17664171 8.35546875 18.73828125 C8.51176315 26.14365863 7.87630817 32.1687681 5 39 C4 36 4 36 5 33 C5.27993617 29.58825374 5.27748665 26.17197109 5.3125 22.75 C5.34150391 21.82058594 5.37050781 20.89117187 5.40039062 19.93359375 C5.45754662 13.71677982 4.57885376 10.11063141 1 5 C0.01 5 -0.98 5 -2 5 C-1.34 3.35 -0.68 1.7 0 0 Z " fill="#818181" transform="translate(589,104)"/>
<path d="M0 0 C0.66 0 1.32 0 2 0 C0.46226926 3.16417672 -1.22411398 6.2132349 -3 9.25 C-3.515625 10.14203125 -4.03125 11.0340625 -4.5625 11.953125 C-5.036875 12.62859375 -5.51125 13.3040625 -6 14 C-6.66 14 -7.32 14 -8 14 C-8 15.32 -8 16.64 -8 18 C-8.66 18 -9.32 18 -10 18 C-10.268125 18.94875 -10.53625 19.8975 -10.8125 20.875 C-12 24 -12 24 -15 26 C-14.690625 25.0925 -14.38125 24.185 -14.0625 23.25 C-12.15673304 18.57207072 -12.15673304 18.57207072 -13 14 C-12.01 14 -11.02 14 -10 14 C-9.67 12.68 -9.34 11.36 -9 10 C-8.34 10 -7.68 10 -7 10 C-7 9.34 -7 8.68 -7 8 C-6.01 8 -5.02 8 -4 8 C-3.71125 7.236875 -3.4225 6.47375 -3.125 5.6875 C-2 3 -2 3 0 0 Z " fill="#BA2C25" transform="translate(359,56)"/>
<path d="M0 0 C1.97909398 -0.02686553 3.95828971 -0.04633375 5.9375 -0.0625 C7.03964844 -0.07410156 8.14179688 -0.08570312 9.27734375 -0.09765625 C12 0 12 0 13 1 C13.07244053 3.01964199 13.08377188 5.04167124 13.0625 7.0625 C13.05347656 8.16722656 13.04445313 9.27195312 13.03515625 10.41015625 C13.02355469 11.26480469 13.01195312 12.11945313 13 13 C8.50201488 13.98123585 4.59632677 14.22604886 0 14 C-2.58844848 11.41155152 -2.23877442 9.60116333 -2.265625 6.0703125 C-1.96218077 3.70523244 -1.16625267 2.06408211 0 0 Z M0 2 C0 5.3 0 8.6 0 12 C3.96 12 7.92 12 12 12 C11.67 8.7 11.34 5.4 11 2 C7.37 2 3.74 2 0 2 Z " fill="#7D7D7D" transform="translate(420,112)"/>
<path d="M0 0 C0.66 0.33 1.32 0.66 2 1 C2 18.16 2 35.32 2 53 C0.02 53.495 0.02 53.495 -2 54 C-4.25 52.0625 -4.25 52.0625 -6 50 C-4.02 50.66 -2.04 51.32 0 52 C0 34.84 0 17.68 0 0 Z " fill="#707070" transform="translate(471,16)"/>
<path d="M0 0 C0.66 0 1.32 0 2 0 C0.19596111 4.66043381 0.19596111 4.66043381 -1.0234375 6.7734375 C-3.757098 11.83361757 -4.39968993 16.48404714 -4.4375 22.1875 C-4.4473291 22.86466064 -4.4571582 23.54182129 -4.46728516 24.23950195 C-4.38799112 28.92531985 -3.09732332 31.89249976 -1 36 C-1.41186523 38.17260742 -1.41186523 38.17260742 -2 40 C-5.68438416 33.72128616 -6.55854697 29.21737782 -6.3125 22 C-6.30283203 21.14921875 -6.29316406 20.2984375 -6.28320312 19.421875 C-6.19151073 14.22331468 -5.89659103 9.12503003 -5 4 C-3 2.625 -3 2.625 -1 2 C-0.67 1.34 -0.34 0.68 0 0 Z " fill="#430606" transform="translate(159,78)"/>
<path d="M0 0 C0.66 0 1.32 0 2 0 C4.88680037 3.81057649 6 7.22321481 6 12 C4.61529529 14.58780881 3.20448587 15.94581998 1 18 C0.01 18 -0.98 18 -2 18 C-2.33 19.32 -2.66 20.64 -3 22 C-3.66 22 -4.32 22 -5 22 C-3.9413574 18.15039054 -2.56841239 15.32150318 -0.25 12.125 C1.32409997 9.7477878 2.03082182 8.58263182 1.87890625 5.7109375 C1.29145401 3.25265901 1.29145401 3.25265901 0 0 Z " fill="#D53534" transform="translate(294,94)"/>
<path d="M0 0 C0.99 0.33 1.98 0.66 3 1 C-5.60423095 6.49206231 -14.00121834 7.28892379 -24.0625 7.625 C-25.50399414 7.68300781 -25.50399414 7.68300781 -26.97460938 7.7421875 C-29.31622814 7.83538626 -31.65786037 7.92119185 -34 8 C-34 7.34 -34 6.68 -34 6 C-30.96240016 4.48120008 -27.82411413 4.98786466 -24.5 5.0625 C-15.40464583 5.15701038 -8.18306425 4.19132559 0 0 Z " fill="#660F0F" transform="translate(217,128)"/>
<path d="M0 0 C0.66 0.33 1.32 0.66 2 1 C1.01 2.485 1.01 2.485 0 4 C-0.99 4 -1.98 4 -3 4 C-2.67 4.99 -2.34 5.98 -2 7 C-4.52461952 9.90331244 -4.52461952 9.90331244 -6.84375 10.375 C-9.63929026 11.18530152 -11.11468483 12.60512776 -13.25 14.5625 C-13.95640625 15.20316406 -14.6628125 15.84382813 -15.390625 16.50390625 C-15.92171875 16.99761719 -16.4528125 17.49132812 -17 18 C-17 14.47967572 -16.29648649 13.5614657 -14 11 C-13.34 11 -12.68 11 -12 11 C-11.67 10.01 -11.34 9.02 -11 8 C-8.49609375 5.95703125 -8.49609375 5.95703125 -5.4375 3.8125 C-3.91962891 2.73935547 -3.91962891 2.73935547 -2.37109375 1.64453125 C-1.58863281 1.10183594 -0.80617188 0.55914062 0 0 Z " fill="#959595" transform="translate(635,60)"/>
<path d="M0 0 C0.99 0.33 1.98 0.66 3 1 C2.360625 1.226875 1.72125 1.45375 1.0625 1.6875 C0.381875 2.120625 -0.29875 2.55375 -1 3 C-1.144375 3.825 -1.28875 4.65 -1.4375 5.5 C-1.623125 6.325 -1.80875 7.15 -2 8 C-3.10601562 8.35191406 -3.10601562 8.35191406 -4.234375 8.7109375 C-8.20633322 10.56227396 -9.62122214 13.44248646 -11.8125 17.125 C-12.21919922 17.78371094 -12.62589844 18.44242188 -13.04492188 19.12109375 C-14.04206937 20.73999203 -15.02270261 22.36904182 -16 24 C-17.125 20.25 -17.125 20.25 -16 18 C-15.34 18 -14.68 18 -14 18 C-13.74089844 17.27425781 -13.48179687 16.54851563 -13.21484375 15.80078125 C-11.95525439 12.89684051 -10.49198794 10.68961017 -8.5625 8.1875 C-7.96566406 7.39730469 -7.36882812 6.60710938 -6.75390625 5.79296875 C-6.17511719 5.20128906 -5.59632813 4.60960937 -5 4 C-4.01 4 -3.02 4 -2 4 C-2 3.34 -2 2.68 -2 2 C-1.34 2 -0.68 2 0 2 C0 1.34 0 0.68 0 0 Z " fill="#500809" transform="translate(158,46)"/>
<path d="M0 0 C3 3.75 3 3.75 3 6 C3.99 6 4.98 6 6 6 C6 6.66 6 7.32 6 8 C6.66 8 7.32 8 8 8 C8 8.66 8 9.32 8 10 C10.475 10.99 10.475 10.99 13 12 C13 12.66 13 13.32 13 14 C10.13275314 13.42655063 9.1385485 13.1385485 7 11 C5.01178687 10.60235737 3.01055661 10.26224651 1 10 C0.67 10.99 0.34 11.98 0 13 C-1.06671952 9.79984144 -0.94845472 8.11455706 -0.5625 4.8125 C-0.46066406 3.91144531 -0.35882813 3.01039062 -0.25390625 2.08203125 C-0.17011719 1.39496094 -0.08632812 0.70789063 0 0 Z " fill="#D6312F" transform="translate(154,112)"/>
<path d="M0 0 C0.33 0.66 0.66 1.32 1 2 C-0.27998456 4.43648826 -1.60776589 6.73317 -3.0625 9.0625 C-3.4764502 9.73627686 -3.89040039 10.41005371 -4.31689453 11.10424805 C-5.53437889 13.0760999 -6.76455235 15.03936468 -8 17 C-8.60457031 17.96421875 -9.20914062 18.9284375 -9.83203125 19.921875 C-13.56996893 25.71331262 -13.56996893 25.71331262 -17 28 C-16.34 26.02 -15.68 24.04 -15 22 C-14.34 22 -13.68 22 -13 22 C-11.92474806 19.34771188 -10.90543849 16.71631546 -10 14 C-9.34 14 -8.68 14 -8 14 C-7.690625 13.05125 -7.38125 12.1025 -7.0625 11.125 C-6 8 -6 8 -5 6 C-4.34 6 -3.68 6 -3 6 C-2.690625 5.195625 -2.38125 4.39125 -2.0625 3.5625 C-1 1 -1 1 0 0 Z " fill="#5D0E0D" transform="translate(288,116)"/>
<path d="M0 0 C3.33511388 2.9901021 5.21521119 5.89498574 7 10 C7 10.66 7 11.32 7 12 C7.66 12 8.32 12 9 12 C9.66 13.98 10.32 15.96 11 18 C11.66 18 12.32 18 13 18 C16.22265625 23.17578125 16.22265625 23.17578125 17 25 C16.67 25.99 16.34 26.98 16 28 C16 27.34 16 26.68 16 26 C15.34 26 14.68 26 14 26 C13.61328125 25.25234375 13.2265625 24.5046875 12.828125 23.734375 C12.30734375 22.74953125 11.7865625 21.7646875 11.25 20.75 C10.73953125 19.77546875 10.2290625 18.8009375 9.703125 17.796875 C8.12541758 14.95812385 8.12541758 14.95812385 5.875 12.875 C3.26151887 10.26151887 2.81658376 7.53852964 2 4 C1.34 4 0.68 4 0 4 C0 2.68 0 1.36 0 0 Z " fill="#5D0C0E" transform="translate(336,106)"/>
<path d="M0 0 C0.66 0 1.32 0 2 0 C3.32708554 1.90693823 4.56079518 3.879164 5.75 5.875 C6.10054443 6.46200684 6.45108887 7.04901367 6.81225586 7.65380859 C7.5299783 8.85572052 8.24538525 10.05901811 8.95849609 11.26367188 C9.91170367 12.85279806 10.90137805 14.41990274 11.89453125 15.984375 C12.44496094 16.85578125 12.99539063 17.7271875 13.5625 18.625 C14.05878906 19.40101562 14.55507813 20.17703125 15.06640625 20.9765625 C16 23 16 23 15 26 C14.16121545 24.71186658 13.32913217 23.41936744 12.5 22.125 C12.0359375 21.40570313 11.571875 20.68640625 11.09375 19.9453125 C10 18 10 18 10 16 C9.34 16 8.68 16 8 16 C7.67386719 15.40832031 7.34773438 14.81664063 7.01171875 14.20703125 C5.1212878 10.78864136 3.23913204 7.38755883 1.1875 4.0625 C0 2 0 2 0 0 Z " fill="#5B0D0E" transform="translate(278,68)"/>
<path d="M0 0 C7.92 0 15.84 0 24 0 C24 0.66 24 1.32 24 2 C23.02389771 1.97643433 23.02389771 1.97643433 22.02807617 1.95239258 C19.08130576 1.89005351 16.13467402 1.85101316 13.1875 1.8125 C12.16333984 1.78736328 11.13917969 1.76222656 10.08398438 1.73632812 C9.10107422 1.72666016 8.11816406 1.71699219 7.10546875 1.70703125 C6.19949951 1.6913208 5.29353027 1.67561035 4.36010742 1.65942383 C1.52320728 2.06880375 0.71180302 2.74692593 -1 5 C-2.21866975 7.71825785 -2.21866975 7.71825785 -3.1875 10.6875 C-3.53167969 11.68136719 -3.87585938 12.67523438 -4.23046875 13.69921875 C-4.48441406 14.45847656 -4.73835938 15.21773437 -5 16 C-6.25127906 12.45332822 -5.72285053 10.27746562 -4.5625 6.75 C-4.27503906 5.85796875 -3.98757812 4.9659375 -3.69140625 4.046875 C-3.46324219 3.37140625 -3.23507813 2.6959375 -3 2 C-2.01 2 -1.02 2 0 2 C0 1.34 0 0.68 0 0 Z " fill="#670E0D" transform="translate(103,38)"/>
<path d="M0 0 C0.66 0 1.32 0 2 0 C1.21824485 4.84688192 -0.39844278 9.3766367 -2 14 C-2.66 14 -3.32 14 -4 14 C-4.66 15.32 -5.32 16.64 -6 18 C-6 16.02 -6 14.04 -6 12 C-5.34 12 -4.68 12 -4 12 C-4.04125 10.906875 -4.0825 9.81375 -4.125 8.6875 C-4 5 -4 5 -2 2 C-1.34 2 -0.68 2 0 2 C0 1.34 0 0.68 0 0 Z " fill="#93231F" transform="translate(111,94)"/>
<path d="M0 0 C0.66 0 1.32 0 2 0 C4.26739937 10.52942993 -0.7460331 20.51684849 -5 30 C-6.04974848 26.81559978 -5.95954415 25.07548503 -4.78515625 21.953125 C-4.51123047 21.19 -4.23730469 20.426875 -3.95507812 19.640625 C-3.36562371 18.06186745 -2.77450961 16.48372846 -2.18164062 14.90625 C-0.31182587 9.68653293 0.31028515 5.54713864 0 0 Z " fill="#641313" transform="translate(127,40)"/>
<path d="M0 0 C0.66 0.33 1.32 0.66 2 1 C1.89816406 1.98613281 1.79632813 2.97226562 1.69140625 3.98828125 C1.6926558 8.95275082 4.20409249 12.21604161 6.9375 16.1875 C7.86800756 17.57366188 8.79396657 18.96289045 9.71484375 20.35546875 C10.12855225 20.96028076 10.54226074 21.56509277 10.96850586 22.18823242 C12.06422947 24.11281584 12.56418495 25.83760666 13 28 C9.51668565 24.98112756 8.20842856 22.43090471 7 18 C6.34 18 5.68 18 5 18 C2.95830515 15.09451118 2 13.59857954 2 10 C1.34 10 0.68 10 0 10 C-1.125 2.25 -1.125 2.25 0 0 Z " fill="#5A0E0C" transform="translate(265,40)"/>
<path d="M0 0 C2.375 0.25 2.375 0.25 5 1 C5.69937532 2.31647119 6.36729133 3.65022151 7 5 C9.05000871 5.80528889 9.05000871 5.80528889 11 6 C12.3271261 9.9813783 12.06915913 13.85045227 12 18 C10.88158632 15.91229447 10.0291824 14.14591199 9.5625 11.8125 C9.376875 11.214375 9.19125 10.61625 9 10 C8.01 9.67 7.02 9.34 6 9 C4.8125 6.4375 4.8125 6.4375 4 4 C3.34 4 2.68 4 2 4 C1.34 2.68 0.68 1.36 0 0 Z " fill="#CA3031" transform="translate(225,76)"/>
<path d="M0 0 C0.66 0 1.32 0 2 0 C1.55544013 5.7702056 -0.85745509 9.53273626 -3.9375 14.25 C-4.39318359 14.96929687 -4.84886719 15.68859375 -5.31835938 16.4296875 C-7.08494812 19.19208395 -8.67436576 21.67436576 -11 24 C-11.20086443 20.28400809 -11.1519437 19.22791555 -9 16 C-8.34 16 -7.68 16 -7 16 C-6.690625 15.05125 -6.38125 14.1025 -6.0625 13.125 C-5 10 -5 10 -4 8 C-3.34 8 -2.68 8 -2 8 C-1.34 5.36 -0.68 2.72 0 0 Z " fill="#DC3A37" transform="translate(302,136)"/>
<path d="M0 0 C0.99 0 1.98 0 3 0 C2.02722466 2.17003729 1.26391116 3.76542636 -0.52856445 5.35864258 C-2.38789732 7.43269183 -2.4904388 8.69810622 -2.73046875 11.44921875 C-2.81103516 12.29677734 -2.89160156 13.14433594 -2.97460938 14.01757812 C-3.04486328 14.89865234 -3.11511719 15.77972656 -3.1875 16.6875 C-3.26935547 17.58017578 -3.35121094 18.47285156 -3.43554688 19.39257812 C-3.63570104 21.59427398 -3.82336258 23.79631338 -4 26 C-4.33 26 -4.66 26 -5 26 C-5.08164159 23.3118751 -5.14079668 20.626277 -5.1875 17.9375 C-5.22520508 16.80924805 -5.22520508 16.80924805 -5.26367188 15.65820312 C-5.33291023 10.32684951 -4.49039024 6.73355045 -2 2 C-1.34 1.34 -0.68 0.68 0 0 Z " fill="#737373" transform="translate(862,12)"/>
<path d="M0 0 C0.66 0 1.32 0 2 0 C2 2.31 2 4.62 2 7 C2.66 6.67 3.32 6.34 4 6 C4.36923077 11.41538462 4.36923077 11.41538462 2.5 14.375 C2.005 14.91125 1.51 15.4475 1 16 C1 14.68 1 13.36 1 12 C0.34 12 -0.32 12 -1 12 C-1.33 12.66 -1.66 13.32 -2 14 C-2.1799928 8.78020872 -1.97094808 4.92737019 0 0 Z " fill="#AB201E" transform="translate(139,70)"/>
<path d="M0 0 C0.66 0.33 1.32 0.66 2 1 C-2.32893185 6.18419194 -6.76564995 10.72706118 -12 15 C-12 10.09687565 -8.29800369 7.38658643 -5 4 C-3.37458956 2.61667196 -1.72614587 1.25537882 0 0 Z " fill="#A5A5A5" transform="translate(752,63)"/>
<path d="M0 0 C0.66 0 1.32 0 2 0 C2 7.92 2 15.84 2 24 C1.34 24 0.68 24 0 24 C-1.21858107 21.56283785 -1.12925575 19.96725943 -1.1328125 17.24609375 C-1.13410156 16.30958984 -1.13539063 15.37308594 -1.13671875 14.40820312 C-1.13285156 13.42787109 -1.12898437 12.44753906 -1.125 11.4375 C-1.12886719 10.45330078 -1.13273438 9.46910156 -1.13671875 8.45507812 C-1.13542969 7.51986328 -1.13414062 6.58464844 -1.1328125 5.62109375 C-1.13168457 4.7592749 -1.13055664 3.89745605 -1.12939453 3.00952148 C-1 1 -1 1 0 0 Z " fill="#BE2E2C" transform="translate(152,88)"/>
<path d="M0 0 C1.98649442 2.97974163 2.72177479 5.13663065 3.625 8.5625 C3.88539062 9.53316406 4.14578125 10.50382812 4.4140625 11.50390625 C5 14 5 14 5 16 C5.99 16 6.98 16 8 16 C7.67 17.98 7.34 19.96 7 22 C6.34 22 5.68 22 5 22 C4.72285156 21.15695313 4.44570312 20.31390625 4.16015625 19.4453125 C3.79792969 18.34960938 3.43570313 17.25390625 3.0625 16.125 C2.70285156 15.03445312 2.34320313 13.94390625 1.97265625 12.8203125 C1.10085926 10.09241318 1.10085926 10.09241318 0 8 C-0.13415472 5.3276379 -0.04318541 2.67749512 0 0 Z " fill="#65100F" transform="translate(65,114)"/>
<path d="M0 0 C3.02419525 0.58803797 6.01758453 1.22678118 9 2 C9 2.66 9 3.32 9 4 C10.32 4 11.64 4 13 4 C13 4.66 13 5.32 13 6 C13.99 6 14.98 6 16 6 C16 6.66 16 7.32 16 8 C16.66 8 17.32 8 18 8 C18 8.66 18 9.32 18 10 C18.99 10 19.98 10 21 10 C21.33 11.32 21.66 12.64 22 14 C21.50113281 13.64808594 21.00226563 13.29617187 20.48828125 12.93359375 C13.9165018 8.41475797 7.06062338 4.68854822 0 1 C0 0.67 0 0.34 0 0 Z " fill="#5E0D0C" transform="translate(217,40)"/>
<path d="M0 0 C2.81008386 2.81008386 3.49488334 6.16269817 4.625 9.875 C4.85445312 10.59558594 5.08390625 11.31617187 5.3203125 12.05859375 C6.40173891 15.5539184 7 18.31028128 7 22 C6.34 22 5.68 22 5 22 C2.28451906 14.64925625 0.34740339 7.85131668 0 0 Z " fill="#721518" transform="translate(54,80)"/>
<path d="M0 0 C1.60844243 4.0414661 0.33790192 7.15146431 -0.875 11.1875 C-1.24367188 12.43917969 -1.61234375 13.69085938 -1.9921875 14.98046875 C-3 18 -3 18 -4 19 C-4.36760731 21.32817964 -4.70241581 23.6618385 -5 26 C-5.66 26 -6.32 26 -7 26 C-6.43178103 20.25323994 -5.29870882 15.10335314 -3.5 9.625 C-3.27441406 8.91472656 -3.04882812 8.20445313 -2.81640625 7.47265625 C-1.17125496 2.34250992 -1.17125496 2.34250992 0 0 Z " fill="#5E0F10" transform="translate(80,104)"/>
<path d="M0 0 C0.33 0 0.66 0 1 0 C1.2994545 5.78945359 0.85247898 8.8435957 -2 14 C-2.33 15.2375 -2.66 16.475 -3 17.75 C-4 21 -4 21 -7 23 C-4.97810834 15.21878058 -2.61369593 7.60227292 0 0 Z " fill="#C5302C" transform="translate(90,76)"/>
<path d="M0 0 C0.89267578 0.00966797 1.78535156 0.01933594 2.70507812 0.02929688 C4.09823242 0.06700195 4.09823242 0.06700195 5.51953125 0.10546875 C6.45990234 0.11900391 7.40027344 0.13253906 8.36914062 0.14648438 C10.69068163 0.18183779 13.01106778 0.23118201 15.33203125 0.29296875 C15.33203125 0.62296875 15.33203125 0.95296875 15.33203125 1.29296875 C12.03203125 1.62296875 8.73203125 1.95296875 5.33203125 2.29296875 C5.33203125 2.62296875 5.33203125 2.95296875 5.33203125 3.29296875 C1.70203125 3.29296875 -1.92796875 3.29296875 -5.66796875 3.29296875 C-5.99796875 4.61296875 -6.32796875 5.93296875 -6.66796875 7.29296875 C-7.32796875 7.29296875 -7.98796875 7.29296875 -8.66796875 7.29296875 C-7.73726848 1.89490719 -5.46552464 -0.10443678 0 0 Z " fill="#C33837" transform="translate(109.66796875,38.70703125)"/>
<path d="M0 0 C1.32 0.33 2.64 0.66 4 1 C2.58653438 2.44064765 1.16908789 3.87739015 -0.25 5.3125 C-1.43335938 6.51326172 -1.43335938 6.51326172 -2.640625 7.73828125 C-4.67394067 9.68743651 -6.70601078 11.37421406 -9 13 C-9.66 12.67 -10.32 12.34 -11 12 C-7.37 8.04 -3.74 4.08 0 0 Z " fill="#ADADAD" transform="translate(918,65)"/>
<path d="M0 0 C0.86931152 0.01047363 1.73862305 0.02094727 2.63427734 0.03173828 C3.57529297 0.03818359 4.51630859 0.04462891 5.48583984 0.05126953 C6.47068359 0.06802734 7.45552734 0.08478516 8.47021484 0.10205078 C9.46279297 0.11107422 10.45537109 0.12009766 11.47802734 0.12939453 C13.93399618 0.15300962 16.38948653 0.18594279 18.84521484 0.22705078 C18.84521484 0.55705078 18.84521484 0.88705078 18.84521484 1.22705078 C12.24521484 1.22705078 5.64521484 1.22705078 -1.15478516 1.22705078 C-1.15478516 4.85705078 -1.15478516 8.48705078 -1.15478516 12.22705078 C-1.81478516 11.89705078 -2.47478516 11.56705078 -3.15478516 11.22705078 C-3.63916016 9.23095703 -3.63916016 9.23095703 -3.90478516 6.78955078 C-4.00275391 5.98646484 -4.10072266 5.18337891 -4.20166016 4.35595703 C-4.13319598 1.24654214 -3.04917449 0.32129303 0 0 Z " fill="#AF3334" transform="translate(17.15478515625,38.77294921875)"/>
<path d="M0 0 C1.32 0 2.64 0 4 0 C4.33 1.32 4.66 2.64 5 4 C6.65 4.33 8.3 4.66 10 5 C10.33 6.65 10.66 8.3 11 10 C8.525 9.01 8.525 9.01 6 8 C6 7.34 6 6.68 6 6 C5.01 6 4.02 6 3 6 C2.67 4.68 2.34 3.36 2 2 C1.34 2 0.68 2 0 2 C0 1.34 0 0.68 0 0 Z " fill="#891C1F" transform="translate(151,148)"/>
<path d="M0 0 C0.66 0 1.32 0 2 0 C0.66749209 3.5875213 -0.830717 6.8364623 -3 10 C-3.66 10 -4.32 10 -5 10 C-5.33 10.66 -5.66 11.32 -6 12 C-6 9.36 -6 6.72 -6 4 C-5.01 4 -4.02 4 -3 4 C-3 3.34 -3 2.68 -3 2 C-2.01 2 -1.02 2 0 2 C0 1.34 0 0.68 0 0 Z " fill="#7F1A18" transform="translate(340,86)"/>
<path d="M0 0 C0.33 0 0.66 0 1 0 C1.33 2.64 1.66 5.28 2 8 C2.99 8.33 3.98 8.66 5 9 C6.64820195 11.60242414 7 12.86248779 7 16 C7.66 16 8.32 16 9 16 C9.33 17.98 9.66 19.96 10 22 C-0.40394491 9.99544818 -0.40394491 9.99544818 -0.375 2.875 C-0.189375 1.451875 -0.189375 1.451875 0 0 Z " fill="#DB3835" transform="translate(267,42)"/>
<path d="M0 0 C0 2.95274099 -0.43891831 4.49058403 -1.5 7.1875 C-1.7784375 7.90292969 -2.056875 8.61835938 -2.34375 9.35546875 C-2.5603125 9.89816406 -2.776875 10.44085938 -3 11 C-2.34 11.33 -1.68 11.66 -1 12 C-1 13.32 -1 14.64 -1 16 C-1.99 16 -2.98 16 -4 16 C-4.33 16.66 -4.66 17.32 -5 18 C-5.69328371 10.48172337 -4.67241975 5.97402239 0 0 Z " fill="#9B1D1C" transform="translate(270,144)"/>
<path d="M0 0 C0.99 0.33 1.98 0.66 3 1 C3 1.66 3 2.32 3 3 C2.01 3.33 1.02 3.66 0 4 C-0.33 4.99 -0.66 5.98 -1 7 C-1.66 7 -2.32 7 -3 7 C-4.07525194 9.65228812 -5.09456151 12.28368454 -6 15 C-6.66 15 -7.32 15 -8 15 C-8.33 15.66 -8.66 16.32 -9 17 C-8.34902701 13.81746539 -7.22025847 11.32312408 -5.625 8.5 C-5.20476562 7.7471875 -4.78453125 6.994375 -4.3515625 6.21875 C-3.02029617 4.03331856 -1.56953552 2.01928546 0 0 Z " fill="#540B09" transform="translate(314,123)"/>
<path d="M0 0 C-2.91024952 1.94016635 -5.82543079 3.5324207 -8.9375 5.125 C-9.97777344 5.66382813 -11.01804688 6.20265625 -12.08984375 6.7578125 C-15 8 -15 8 -19 8 C-19 7.34 -19 6.68 -19 6 C-6.65645695 -0.30960265 -6.65645695 -0.30960265 0 0 Z " fill="#61100F" transform="translate(180,38)"/>
<path d="M0 0 C3.13498176 1.08102819 3.9868559 1.97840612 5.75 4.875 C7 8 7 8 7 12 C5.68 12.33 4.36 12.66 3 13 C1.8422494 9.52674819 1.93133348 6.63932552 2 3 C1.34 2.67 0.68 2.34 0 2 C0 1.34 0 0.68 0 0 Z " fill="#E23C35" transform="translate(240,58)"/>
<path d="M0 0 C-5.16335525 3.26106648 -10.03007708 3.8267699 -16 3 C-16.66 2.34 -17.32 1.68 -18 1 C-15.56348622 0.63737003 -13.12623023 0.28461036 -10.6875 -0.0625 C-9.99720703 -0.16626953 -9.30691406 -0.27003906 -8.59570312 -0.37695312 C-5.30415164 -0.83808836 -3.19783876 -1.06594625 0 0 Z " fill="#939393" transform="translate(946,164)"/>
<path d="M0 0 C6.48116777 1.00818165 9.47542475 2.1273805 14 7 C14.99 8.485 14.99 8.485 16 10 C13.0280615 8.87548273 10.66559313 7.77706209 8 6 C8 5.34 8 4.68 8 4 C6.8553125 4.12375 6.8553125 4.12375 5.6875 4.25 C3 4 3 4 1.1875 2 C0.5996875 1.01 0.5996875 1.01 0 0 Z " fill="#731717" transform="translate(209,66)"/>
<path d="M0 0 C0.33 0 0.66 0 1 0 C1.43177893 6.26079448 0.92739438 9.09075703 -3 14 C-4.37095624 10.30962722 -3.60010967 8.29116165 -2.0625 4.75 C-1.68222656 3.85796875 -1.30195312 2.9659375 -0.91015625 2.046875 C-0.60980469 1.37140625 -0.30945313 0.6959375 0 0 Z " fill="#DD3A36" transform="translate(84,98)"/>
<path d="M0 0 C3.465 1.98 3.465 1.98 7 4 C6.67 7.96 6.34 11.92 6 16 C5.67 16 5.34 16 5 16 C5 12.7 5 9.4 5 6 C3.68 6 2.36 6 1 6 C0.67 4.02 0.34 2.04 0 0 Z " fill="#D73736" transform="translate(160,122)"/>
<path d="M0 0 C3.96 0 7.92 0 12 0 C12 1.98 12 3.96 12 6 C10.68 5.34 9.36 4.68 8 4 C8 3.67 8 3.34 8 3 C5.36 2.34 2.72 1.68 0 1 C0 0.67 0 0.34 0 0 Z " fill="#F22C29" transform="translate(351,42)"/>
<path d="M0 0 C2.39763185 2.39763185 2.34280586 3.33273498 2.625 6.625 C2.69976562 7.44226563 2.77453125 8.25953125 2.8515625 9.1015625 C2.92503906 10.04128906 2.92503906 10.04128906 3 11 C1.68 10.67 0.36 10.34 -1 10 C-1 10.66 -1 11.32 -1 12 C-1.66 12 -2.32 12 -3 12 C-2 8 -1 4 0 0 Z " fill="#AF2726" transform="translate(52,74)"/>
<path d="M0 0 C0.66 0 1.32 0 2 0 C1.731875 0.639375 1.46375 1.27875 1.1875 1.9375 C-0.35364142 5.91202261 -1.67609312 9.94884495 -3 14 C-3.99 14 -4.98 14 -6 14 C-6 12.68 -6 11.36 -6 10 C-5.01 10 -4.02 10 -3 10 C-3.33 8.68 -3.66 7.36 -4 6 C-3.34 6 -2.68 6 -2 6 C-1.34 4.02 -0.68 2.04 0 0 Z " fill="#BD2D2E" transform="translate(346,72)"/>
<path d="M0 0 C0.66 0 1.32 0 2 0 C2 0.66 2 1.32 2 2 C2.804375 2.226875 3.60875 2.45375 4.4375 2.6875 C5.283125 3.120625 6.12875 3.55375 7 4 C7.6875 6.375 7.6875 6.375 8 9 C8.99083967 11.23408113 8.99083967 11.23408113 10 13 C6.37114422 11.54845769 4.84567327 9.7599362 2.75 6.5 C1.96882813 5.30890625 1.96882813 5.30890625 1.171875 4.09375 C0 2 0 2 0 0 Z " fill="#E03A38" transform="translate(281,70)"/>
<path d="M0 0 C0.66 0 1.32 0 2 0 C2.433125 0.9590625 2.433125 0.9590625 2.875 1.9375 C3.82823451 4.15206079 3.82823451 4.15206079 6 5 C7.10546875 6.7421875 7.10546875 6.7421875 8.1875 8.875 C8.55230469 9.57367188 8.91710937 10.27234375 9.29296875 10.9921875 C10 13 10 13 9 16 C8.68546875 15.49210938 8.3709375 14.98421875 8.046875 14.4609375 C5.98228671 11.14018404 3.90975996 7.84289615 1.6875 4.625 C0 2 0 2 0 0 Z " fill="#600F0F" transform="translate(317,126)"/>
<path d="M0 0 C3.70722086 3.19588005 5.40645479 6.38710598 7 11 C6.67 11.99 6.34 12.98 6 14 C4.35 11.03 2.7 8.06 1 5 C0.01 5 -0.98 5 -2 5 C-1.34 3.35 -0.68 1.7 0 0 Z " fill="#969694" transform="translate(589,104)"/>
<path d="M0 0 C3.875 1.75 3.875 1.75 5 4 C8.04581269 4.46954261 8.04581269 4.46954261 11.5625 4.625 C12.76003906 4.69976562 13.95757812 4.77453125 15.19140625 4.8515625 C16.11824219 4.90054688 17.04507812 4.94953125 18 5 C18 5.33 18 5.66 18 6 C15.37438891 6.08074203 12.75124324 6.1403623 10.125 6.1875 C9.00544922 6.22520508 9.00544922 6.22520508 7.86328125 6.26367188 C5.6953125 6.29296875 5.6953125 6.29296875 2 6 C0 3 0 3 0 0 Z " fill="#9E2523" transform="translate(337,158)"/>
<path d="M0 0 C1 3 1 3 0.22265625 4.82421875 C-0.8515625 6.54947917 -1.92578125 8.27473958 -3 10 C-4.32 10 -5.64 10 -7 10 C-7 8.68 -7 7.36 -7 6 C-6.01 6 -5.02 6 -4 6 C-3.34 4.68 -2.68 3.36 -2 2 C-1.34 2 -0.68 2 0 2 C0 1.34 0 0.68 0 0 Z " fill="#500808" transform="translate(320,70)"/>
<path d="M0 0 C4.10958767 1.45044271 7.43258745 3.51110752 11 6 C9.68 6.33 8.36 6.66 7 7 C7 6.34 7 5.68 7 5 C3.37114676 4.84850702 3.37114676 4.84850702 0 6 C0 4.02 0 2.04 0 0 Z " fill="#D73934" transform="translate(225,45)"/>
<path d="M0 0 C0.66 0.33 1.32 0.66 2 1 C1.01 2.485 1.01 2.485 0 4 C-0.99 4 -1.98 4 -3 4 C-2.67 4.99 -2.34 5.98 -2 7 C-3.375 8.5 -3.375 8.5 -5 10 C-5.66 10 -6.32 10 -7 10 C-6.52727227 5.74545047 -4.03562624 3.80795427 -1 1 C-0.67 0.67 -0.34 0.34 0 0 Z " fill="#BFBFBF" transform="translate(635,60)"/>
<path d="M0 0 C9.12256267 -0.62674095 9.12256267 -0.62674095 12.625 1.875 C14 4 14 4 14 6 C12.68 5.34 11.36 4.68 10 4 C10 3.34 10 2.68 10 2 C6.7 1.67 3.4 1.34 0 1 C0 0.67 0 0.34 0 0 Z " fill="#E43A3D" transform="translate(279,40)"/>
<path d="M0 0 C0.66 1.32 1.32 2.64 2 4 C2.66 4 3.32 4 4 4 C4 6.64 4 9.28 4 12 C3.34 12 2.68 12 2 12 C0.86235649 7.73383684 0 4.43513689 0 0 Z " fill="#7D1718" transform="translate(365,152)"/>
<path d="M0 0 C1.37562854 1.28965176 2.70766393 2.62689293 4 4 C4 4.66 4 5.32 4 6 C4.66 6 5.32 6 6 6 C6.66 7.98 7.32 9.96 8 12 C7.34 12 6.68 12 6 12 C5.67 10.68 5.34 9.36 5 8 C4.34 8 3.68 8 3 8 C0 2.25 0 2.25 0 0 Z " fill="#661012" transform="translate(353,134)"/>
<path d="M0 0 C0.99 0.33 1.98 0.66 3 1 C2.125 4.875 2.125 4.875 1 6 C-0.66617115 6.04063832 -2.33388095 6.042721 -4 6 C-4.33 6.66 -4.66 7.32 -5 8 C-5.66 7.34 -6.32 6.68 -7 6 C-6.030625 5.566875 -5.06125 5.13375 -4.0625 4.6875 C-0.72268235 3.2985139 -0.72268235 3.2985139 0 0 Z " fill="#AB2724" transform="translate(220,126)"/>
<path d="M0 0 C0.66 0 1.32 0 2 0 C1.55037804 1.96035175 1.09001752 3.91824309 0.625 5.875 C0.36976562 6.96554688 0.11453125 8.05609375 -0.1484375 9.1796875 C-1 12 -1 12 -3 14 C-3.33 12.68 -3.66 11.36 -4 10 C-3.34 10 -2.68 10 -2 10 C-2.04125 9.0925 -2.0825 8.185 -2.125 7.25 C-2.00468444 4.1217954 -1.6085292 2.61385994 0 0 Z " fill="#D23736" transform="translate(101,118)"/>
<path d="M0 0 C0.66 0 1.32 0 2 0 C4.5393228 3.41831915 5.3636198 5.75776898 5 10 C3.02 10.99 3.02 10.99 1 12 C1.20625 11.13375 1.4125 10.2675 1.625 9.375 C2.04047622 5.63571398 1.39666276 3.45057859 0 0 Z " fill="#6A110F" transform="translate(294,94)"/>
<path d="M0 0 C0.66 0 1.32 0 2 0 C0.43358249 4.30764815 -1.68336156 8.06171464 -4 12 C-4.33 12 -4.66 12 -5 12 C-5.20086443 8.28400809 -5.1519437 7.22791555 -3 4 C-2.34 4 -1.68 4 -1 4 C-0.67 2.68 -0.34 1.36 0 0 Z " fill="#D73331" transform="translate(296,148)"/>
<path d="M0 0 C0.66 0 1.32 0 2 0 C5.07692308 5.41538462 5.07692308 5.41538462 4.6875 8.375 C4.460625 8.91125 4.23375 9.4475 4 10 C3.01 9.34 2.02 8.68 1 8 C1.33 6.68 1.66 5.36 2 4 C1.34 4 0.68 4 0 4 C0 2.68 0 1.36 0 0 Z " fill="#DB383B" transform="translate(359,146)"/>
<path d="M0 0 C2.3125 0.125 2.3125 0.125 5 1 C6.875 3.875 6.875 3.875 8 7 C7.67 7.99 7.34 8.98 7 10 C4 6.25 4 6.25 4 4 C3.34 4 2.68 4 2 4 C1.34 2.68 0.68 1.36 0 0 Z " fill="#671111" transform="translate(225,76)"/>
<path d="M0 0 C0.66 0 1.32 0 2 0 C0.87548273 2.9719385 -0.22293791 5.33440687 -2 8 C-2.66 8 -3.32 8 -4 8 C-4.33 8.66 -4.66 9.32 -5 10 C-5 8.02 -5 6.04 -5 4 C-4.360625 3.71125 -3.72125 3.4225 -3.0625 3.125 C-0.84793921 2.17176549 -0.84793921 2.17176549 0 0 Z " fill="#7F1A18" transform="translate(159,78)"/>
<path d="M0 0 C0.66 0 1.32 0 2 0 C0.61735163 2.86867231 -0.92148553 5.56024032 -2.625 8.25 C-3.07101562 8.95640625 -3.51703125 9.6628125 -3.9765625 10.390625 C-4.48316406 11.18726562 -4.48316406 11.18726562 -5 12 C-5.33 11.01 -5.66 10.02 -6 9 C-4.85546875 6.73828125 -4.85546875 6.73828125 -3.1875 4.3125 C-2.64480469 3.50425781 -2.10210937 2.69601563 -1.54296875 1.86328125 C-1.03378906 1.24839844 -0.52460938 0.63351563 0 0 Z " fill="#590F0D" transform="translate(359,56)"/>
<path d="M0 0 C2.31 0.66 4.62 1.32 7 2 C6.01 2.495 6.01 2.495 5 3 C5.99 5.31 6.98 7.62 8 10 C7.34 10 6.68 10 6 10 C4.4921875 8.06640625 4.4921875 8.06640625 2.875 5.5625 C2.33617187 4.73878906 1.79734375 3.91507813 1.2421875 3.06640625 C0 1 0 1 0 0 Z " fill="#9B9B9B" transform="translate(913,148)"/>
<path d="M0 0 C3.10551666 3.10551666 3.81323934 4.89198233 5 9 C3.35 9 1.7 9 0 9 C0 6.03 0 3.06 0 0 Z " fill="#E13838" transform="translate(346,125)"/>
<path d="M0 0 C2.475 0.495 2.475 0.495 5 1 C5.66 4.3 6.32 7.6 7 11 C4 7 4 7 4 4 C2.68 3.34 1.36 2.68 0 2 C0 1.34 0 0.68 0 0 Z " fill="#CF2F31" transform="translate(319,127)"/>
<path d="M0 0 C0.99 0.33 1.98 0.66 3 1 C3 1.66 3 2.32 3 3 C4.65 3 6.3 3 8 3 C8 3.66 8 4.32 8 5 C7.34 5 6.68 5 6 5 C6 5.66 6 6.32 6 7 C4.68 6.34 3.36 5.68 2 5 C2 4.01 2 3.02 2 2 C1.34 2 0.68 2 0 2 C0 1.34 0 0.68 0 0 Z " fill="#ED3A35" transform="translate(228,75)"/>
<path d="M0 0 C0.33 1.32 0.66 2.64 1 4 C0.34 4 -0.32 4 -1 4 C-1.268125 4.94875 -1.53625 5.8975 -1.8125 6.875 C-3 10 -3 10 -6 12 C-4.68139111 7.38486888 -2.78644563 3.90102388 0 0 Z " fill="#600E0E" transform="translate(350,70)"/>
<path d="M0 0 C0.33 0 0.66 0 1 0 C1 1.98 1 3.96 1 6 C2.98 5.67 4.96 5.34 7 5 C6.67 5.66 6.34 6.32 6 7 C4.68 7 3.36 7 2 7 C2 7.66 2 8.32 2 9 C1.01 9 0.02 9 -1 9 C-0.67 6.03 -0.34 3.06 0 0 Z " fill="#841816" transform="translate(165,138)"/>
<path d="M0 0 C1.32 0 2.64 0 4 0 C4 0.66 4 1.32 4 2 C3.34 2 2.68 2 2 2 C1.34 3.98 0.68 5.96 0 8 C-0.66 8 -1.32 8 -2 8 C-2 6.68 -2 5.36 -2 4 C-1.34 4 -0.68 4 0 4 C0 2.68 0 1.36 0 0 Z " fill="#F6362E" transform="translate(243,134)"/>
<path d="M0 0 C0.66 0 1.32 0 2 0 C2 0.66 2 1.32 2 2 C2.66 2 3.32 2 4 2 C4 2.66 4 3.32 4 4 C6.475 4.99 6.475 4.99 9 6 C9 6.66 9 7.32 9 8 C5.64599451 7.40107045 3.50144503 6.32893158 1 4 C0.25 1.8125 0.25 1.8125 0 0 Z " fill="#580B0B" transform="translate(158,118)"/>
<path d="M0 0 C0 0.66 0 1.32 0 2 C-1.6796875 3.5078125 -1.6796875 3.5078125 -3.875 5.125 C-4.95394531 5.93324219 -4.95394531 5.93324219 -6.0546875 6.7578125 C-8 8 -8 8 -10 8 C-8.89904638 4.69713914 -8.3103981 4.21489099 -5.5625 2.3125 C-4.94503906 1.87550781 -4.32757813 1.43851562 -3.69140625 0.98828125 C-2 0 -2 0 0 0 Z " fill="#580C0C" transform="translate(171,70)"/>
<path d="M0 0 C0.66 0 1.32 0 2 0 C4.27678571 8.03571429 4.27678571 8.03571429 3 12 C2.49166409 10.75336669 1.99368855 9.50250613 1.5 8.25 C1.2215625 7.55390625 0.943125 6.8578125 0.65625 6.140625 C0 4 0 4 0 0 Z " fill="#D03535" transform="translate(37,112)"/>
<path d="M0 0 C0.33 0.66 0.66 1.32 1 2 C0.22265625 3.9453125 0.22265625 3.9453125 -0.9375 6.125 C-1.31777344 6.84945312 -1.69804687 7.57390625 -2.08984375 8.3203125 C-2.39019531 8.87460938 -2.69054687 9.42890625 -3 10 C-3.66 10 -4.32 10 -5 10 C-3.84414715 6.08788267 -2.64465038 3.1254959 0 0 Z " fill="#621010" transform="translate(294,106)"/>
<path d="M0 0 C0 3.99904969 -1.72586967 5.80200422 -4 9 C-5.125 5.25 -5.125 5.25 -4 3 C-3.34 3 -2.68 3 -2 3 C-2 2.34 -2 1.68 -2 1 C-1.34 0.67 -0.68 0.34 0 0 Z " fill="#711717" transform="translate(146,61)"/>
<path d="M0 0 C0.66 0.33 1.32 0.66 2 1 C2 2.98 2 4.96 2 7 C1.01 7 0.02 7 -1 7 C-1 7.66 -1 8.32 -1 9 C-1.66 9 -2.32 9 -3 9 C-2.01 6.03 -1.02 3.06 0 0 Z " fill="#DA2F2F" transform="translate(334,49)"/>
<path d="M0 0 C1.98 0 3.96 0 6 0 C6.33 0.66 6.66 1.32 7 2 C4.625 3.0625 4.625 3.0625 2 4 C1.34 3.67 0.68 3.34 0 3 C0 2.01 0 1.02 0 0 Z " fill="#90201D" transform="translate(209,38)"/>
<path d="M0 0 C1.32 0 2.64 0 4 0 C4.66 1.98 5.32 3.96 6 6 C5.01 6 4.02 6 3 6 C2.67 4.68 2.34 3.36 2 2 C1.34 2 0.68 2 0 2 C0 1.34 0 0.68 0 0 Z " fill="#7D1919" transform="translate(151,148)"/>
<path d="M0 0 C0.33 0 0.66 0 1 0 C1 1.98 1 3.96 1 6 C1.66 6 2.32 6 3 6 C2.67 6.99 2.34 7.98 2 9 C1.01 8.34 0.02 7.68 -1 7 C-1.25 3.9375 -1.25 3.9375 -1 1 C-0.67 0.67 -0.34 0.34 0 0 Z " fill="#D72E30" transform="translate(76,122)"/>
<path d="M0 0 C2.475 0.99 2.475 0.99 5 2 C5 3.32 5 4.64 5 6 C3.68 6 2.36 6 1 6 C0.67 4.02 0.34 2.04 0 0 Z " fill="#AF2C28" transform="translate(236,52)"/>
<path d="M0 0 C3.125 -0.1875 3.125 -0.1875 6 0 C4.25 2.0625 4.25 2.0625 2 4 C-0.25 3.75 -0.25 3.75 -2 3 C-1.34 2.01 -0.68 1.02 0 0 Z " fill="#942224" transform="translate(173,66)"/>
<path d="M0 0 C0.99 0.33 1.98 0.66 3 1 C2.360625 1.226875 1.72125 1.45375 1.0625 1.6875 C-1.27193661 2.85250896 -1.27193661 2.85250896 -1.75 5.625 C-1.8325 6.40875 -1.915 7.1925 -2 8 C-2.99 7.67 -3.98 7.34 -5 7 C-3.625 4.5 -3.625 4.5 -2 2 C-1.34 2 -0.68 2 0 2 C0 1.34 0 0.68 0 0 Z " fill="#881B1A" transform="translate(158,46)"/>
<path d="M0 0 C2.31 0 4.62 0 7 0 C6.67 0.99 6.34 1.98 6 3 C5.34 3 4.68 3 4 3 C4 2.34 4 1.68 4 1 C3.01 1 2.02 1 1 1 C1 1.99 1 2.98 1 4 C0.34 4 -0.32 4 -1 4 C-0.67 2.68 -0.34 1.36 0 0 Z " fill="#EC3937" transform="translate(340,42)"/>
<path d="M0 0 C0.66 0 1.32 0 2 0 C2.66 2.64 3.32 5.28 4 8 C2.68 7.34 1.36 6.68 0 6 C0 4.02 0 2.04 0 0 Z " fill="#5D0B0B" transform="translate(332,98)"/>
<path d="M0 0 C3.93846154 3.32307692 3.93846154 3.32307692 4.25 6.75 C4.1675 7.4925 4.085 8.235 4 9 C1.47740939 7.02579865 1.0070192 6.03254358 0.3125 2.8125 C0.209375 1.884375 0.10625 0.95625 0 0 Z " fill="#E43B3D" transform="translate(300,58)"/>
<path d="M0 0 C0.66 0.33 1.32 0.66 2 1 C-2.75 5.875 -2.75 5.875 -5 7 C-3.75023244 3.34683329 -3.32901247 2.21934164 0 0 Z " fill="#8C8C8C" transform="translate(502,33)"/>
</svg>
